<svg id="visual" viewBox="0 0 675 900" width="675" height="900" xmlns="http://www.w3.org/2000/svg" xmlns:xlink="http://www.w3.org/1999/xlink" version="1.1"><g transform="translate(289.5226309310435 474.10476644765913)"><path d="M184.1 -292.7C227.5 -293.7 244.1 -222.1 272.1 -161.2C300.1 -100.3 339.6 -50.2 355.7 9.3C371.9 68.8 364.8 137.7 313.4 158C261.9 178.4 166.2 150.2 106.6 168C47 185.7 23.5 249.4 3 244.2C-17.6 239.1 -35.2 165.2 -95.2 147.7C-155.2 130.2 -257.8 169.1 -266.8 153.9C-275.8 138.7 -191.4 69.3 -177.4 8.1C-163.4 -53.2 -219.8 -106.3 -231.9 -158.2C-244 -210 -211.8 -260.4 -165.7 -257.9C-119.7 -255.3 -59.8 -199.6 5.2 -208.7C70.3 -217.8 140.6 -291.6 184.1 -292.7" fill="#08218e"></path></g></svg>