<svg id="visual" viewBox="0 0 900 600" width="900" height="600" xmlns="http://www.w3.org/2000/svg" xmlns:xlink="http://www.w3.org/1999/xlink" version="1.1"><g transform="translate(420.3217258883531 351.44120105114)"><path d="M32.1 -90.1C45.5 -47.8 63 -47.2 108 -39.1C153 -31 225.5 -15.5 247 12.4C268.5 40.3 239.1 80.7 207.4 111.8C175.7 143 141.9 165 106.9 148.7C72 132.4 36 77.7 5.7 67.7C-24.5 57.8 -49 92.5 -49 88.7C-49 84.9 -24.5 42.4 -51.9 21.2C-79.3 0 -158.7 0 -184.5 -14.9C-210.3 -29.8 -182.7 -59.7 -164.3 -96.5C-145.8 -133.3 -136.7 -177.1 -110.8 -212.1C-85 -247.2 -42.5 -273.6 -16.6 -244.9C9.3 -216.2 18.7 -132.3 32.1 -90.1" fill="#08208e"></path></g></svg>