<svg id="visual" viewBox="0 0 900 600" width="900" height="600" xmlns="http://www.w3.org/2000/svg" xmlns:xlink="http://www.w3.org/1999/xlink" version="1.1"><g transform="translate(408.8768275939264 337.01406290294676)"><path d="M104.1 -163.5C176.6 -138.5 305.7 -194.8 330.9 -181C356.2 -167.3 277.6 -83.7 242.1 -20.5C206.6 42.7 214.1 85.3 224.7 161.1C235.3 236.9 248.9 345.8 212 335.4C175 325 87.5 195.3 11.4 175.5C-64.7 155.8 -129.3 245.9 -156.3 250.5C-183.3 255.2 -172.6 174.3 -164.3 118.3C-156 62.3 -150 31.2 -167.2 -9.9C-184.3 -51 -224.7 -102 -243.1 -175.5C-261.5 -248.9 -258 -344.9 -213.8 -386.2C-169.7 -427.5 -84.8 -414.3 -34.5 -354.5C15.8 -294.8 31.7 -188.5 104.1 -163.5" fill="#08208e"></path></g></svg>