<svg id="visual" viewBox="0 0 675 900" width="675" height="900" xmlns="http://www.w3.org/2000/svg" xmlns:xlink="http://www.w3.org/1999/xlink" version="1.1"><g transform="translate(290.34535355355774 480.74734485061055)"><path d="M145.9 -261.5C173.2 -237 168.5 -165.8 203.8 -114.4C239.1 -63 314.6 -31.5 348.2 19.4C381.8 70.3 373.6 140.6 317.4 155.8C261.1 171.1 156.9 131.2 96.1 140.7C35.2 150.2 17.6 209.1 -1.1 211.1C-19.8 213 -39.7 158 -67.1 129.2C-94.5 100.4 -129.5 97.7 -170.9 80.5C-212.4 63.3 -260.2 31.7 -271.2 -6.3C-282.1 -44.3 -256.2 -88.7 -231.5 -134.7C-206.7 -180.8 -183.1 -228.5 -144.7 -246.5C-106.3 -264.5 -53.2 -252.8 3.1 -258.1C59.3 -263.4 118.7 -285.9 145.9 -261.5" fill="#08218e"></path></g></svg>