<svg id="visual" viewBox="0 0 900 600" width="900" height="600" xmlns="http://www.w3.org/2000/svg" xmlns:xlink="http://www.w3.org/1999/xlink" version="1.1"><rect x="0" y="0" width="900" height="600" fill="#A5ACAF"></rect><defs><linearGradient id="grad1_0" x1="33.3%" y1="0%" x2="100%" y2="100%"><stop offset="20%" stop-color="#004c54" stop-opacity="1"></stop><stop offset="80%" stop-color="#004c54" stop-opacity="1"></stop></linearGradient></defs><defs><linearGradient id="grad1_1" x1="33.3%" y1="0%" x2="100%" y2="100%"><stop offset="20%" stop-color="#004c54" stop-opacity="1"></stop><stop offset="80%" stop-color="#255961" stop-opacity="1"></stop></linearGradient></defs><defs><linearGradient id="grad1_2" x1="33.3%" y1="0%" x2="100%" y2="100%"><stop offset="20%" stop-color="#3d666e" stop-opacity="1"></stop><stop offset="80%" stop-color="#255961" stop-opacity="1"></stop></linearGradient></defs><defs><linearGradient id="grad1_3" x1="33.3%" y1="0%" x2="100%" y2="100%"><stop offset="20%" stop-color="#3d666e" stop-opacity="1"></stop><stop offset="80%" stop-color="#52747c" stop-opacity="1"></stop></linearGradient></defs><defs><linearGradient id="grad1_4" x1="33.3%" y1="0%" x2="100%" y2="100%"><stop offset="20%" stop-color="#678189" stop-opacity="1"></stop><stop offset="80%" stop-color="#52747c" stop-opacity="1"></stop></linearGradient></defs><defs><linearGradient id="grad1_5" x1="33.3%" y1="0%" x2="100%" y2="100%"><stop offset="20%" stop-color="#678189" stop-opacity="1"></stop><stop offset="80%" stop-color="#7c8f96" stop-opacity="1"></stop></linearGradient></defs><defs><linearGradient id="grad1_6" x1="33.3%" y1="0%" x2="100%" y2="100%"><stop offset="20%" stop-color="#909da2" stop-opacity="1"></stop><stop offset="80%" stop-color="#7c8f96" stop-opacity="1"></stop></linearGradient></defs><defs><linearGradient id="grad1_7" x1="33.3%" y1="0%" x2="100%" y2="100%"><stop offset="20%" stop-color="#909da2" stop-opacity="1"></stop><stop offset="80%" stop-color="#a5acaf" stop-opacity="1"></stop></linearGradient></defs><defs><linearGradient id="grad2_0" x1="0%" y1="0%" x2="66.7%" y2="100%"><stop offset="20%" stop-color="#004c54" stop-opacity="1"></stop><stop offset="80%" stop-color="#004c54" stop-opacity="1"></stop></linearGradient></defs><defs><linearGradient id="grad2_1" x1="0%" y1="0%" x2="66.7%" y2="100%"><stop offset="20%" stop-color="#255961" stop-opacity="1"></stop><stop offset="80%" stop-color="#004c54" stop-opacity="1"></stop></linearGradient></defs><defs><linearGradient id="grad2_2" x1="0%" y1="0%" x2="66.7%" y2="100%"><stop offset="20%" stop-color="#255961" stop-opacity="1"></stop><stop offset="80%" stop-color="#3d666e" stop-opacity="1"></stop></linearGradient></defs><defs><linearGradient id="grad2_3" x1="0%" y1="0%" x2="66.7%" y2="100%"><stop offset="20%" stop-color="#52747c" stop-opacity="1"></stop><stop offset="80%" stop-color="#3d666e" stop-opacity="1"></stop></linearGradient></defs><defs><linearGradient id="grad2_4" x1="0%" y1="0%" x2="66.7%" y2="100%"><stop offset="20%" stop-color="#52747c" stop-opacity="1"></stop><stop offset="80%" stop-color="#678189" stop-opacity="1"></stop></linearGradient></defs><defs><linearGradient id="grad2_5" x1="0%" y1="0%" x2="66.7%" y2="100%"><stop offset="20%" stop-color="#7c8f96" stop-opacity="1"></stop><stop offset="80%" stop-color="#678189" stop-opacity="1"></stop></linearGradient></defs><defs><linearGradient id="grad2_6" x1="0%" y1="0%" x2="66.7%" y2="100%"><stop offset="20%" stop-color="#7c8f96" stop-opacity="1"></stop><stop offset="80%" stop-color="#909da2" stop-opacity="1"></stop></linearGradient></defs><defs><linearGradient id="grad2_7" x1="0%" y1="0%" x2="66.7%" y2="100%"><stop offset="20%" stop-color="#a5acaf" stop-opacity="1"></stop><stop offset="80%" stop-color="#909da2" stop-opacity="1"></stop></linearGradient></defs><g transform="translate(900, 0)"><path d="M0 297.5C-19.1 250.4 -38.2 203.4 -59.9 184.5C-81.7 165.6 -106.1 174.8 -122.8 169.1C-139.6 163.4 -148.8 142.7 -178.8 129.9C-208.8 117.1 -259.6 112.3 -282.9 91.9C-306.2 71.6 -301.8 35.8 -297.5 0L0 0Z" fill="#9ba5a9"></path><path d="M0 260.3C-16.7 219.1 -33.4 178 -52.5 161.4C-71.5 144.9 -92.8 153 -107.5 147.9C-122.2 142.9 -130.2 124.8 -156.4 113.7C-182.7 102.5 -227.2 98.2 -247.5 80.4C-267.9 62.6 -264.1 31.3 -260.3 0L0 0Z" fill="#86969c"></path><path d="M0 223.1C-14.3 187.8 -28.7 152.6 -45 138.4C-61.3 124.2 -79.6 131.1 -92.1 126.8C-104.7 122.5 -111.6 107 -134.1 97.4C-156.6 87.8 -194.7 84.2 -212.2 68.9C-229.6 53.7 -226.4 26.8 -223.1 0L0 0Z" fill="#72888f"></path><path d="M0 185.9C-11.9 156.5 -23.9 127.1 -37.5 115.3C-51.1 103.5 -66.3 109.3 -76.8 105.7C-87.3 102.1 -93 89.2 -111.7 81.2C-130.5 73.2 -162.3 70.2 -176.8 57.4C-191.3 44.7 -188.6 22.4 -185.9 0L0 0Z" fill="#5d7a82"></path><path d="M0 148.7C-9.6 125.2 -19.1 101.7 -30 92.3C-40.8 82.8 -53 87.4 -61.4 84.5C-69.8 81.7 -74.4 71.3 -89.4 65C-104.4 58.6 -129.8 56.1 -141.4 46C-153.1 35.8 -150.9 17.9 -148.7 0L0 0Z" fill="#486d75"></path><path d="M0 111.5C-7.2 93.9 -14.3 76.3 -22.5 69.2C-30.6 62.1 -39.8 65.6 -46.1 63.4C-52.4 61.3 -55.8 53.5 -67 48.7C-78.3 43.9 -97.4 42.1 -106.1 34.5C-114.8 26.8 -113.2 13.4 -111.5 0L0 0Z" fill="#315f68"></path><path d="M0 74.4C-4.8 62.6 -9.6 50.9 -15 46.1C-20.4 41.4 -26.5 43.7 -30.7 42.3C-34.9 40.8 -37.2 35.7 -44.7 32.5C-52.2 29.3 -64.9 28.1 -70.7 23C-76.5 17.9 -75.5 8.9 -74.4 0L0 0Z" fill="#16525b"></path><path d="M0 37.2C-2.4 31.3 -4.8 25.4 -7.5 23.1C-10.2 20.7 -13.3 21.9 -15.4 21.1C-17.5 20.4 -18.6 17.8 -22.3 16.2C-26.1 14.6 -32.5 14 -35.4 11.5C-38.3 8.9 -37.7 4.5 -37.2 0L0 0Z" fill="#004c54"></path></g><g transform="translate(0, 600)"><path d="M0 -297.5C20.4 -254.8 40.9 -212.1 64.3 -197.8C87.7 -183.5 114 -197.7 145.2 -199.8C176.4 -202 212.5 -192.1 237 -172.2C261.6 -152.3 274.7 -122.3 282.9 -91.9C291.1 -61.5 294.3 -30.8 297.5 0L0 0Z" fill="#9ba5a9"></path><path d="M0 -260.3C17.9 -222.9 35.8 -185.6 56.2 -173.1C76.7 -160.6 99.7 -173 127 -174.8C154.3 -176.7 185.9 -168.1 207.4 -150.7C228.9 -133.3 240.4 -107 247.5 -80.4C254.7 -53.8 257.5 -26.9 260.3 0L0 0Z" fill="#86969c"></path><path d="M0 -223.1C15.3 -191.1 30.7 -159.1 48.2 -148.4C65.7 -137.7 85.5 -148.3 108.9 -149.9C132.3 -151.5 159.3 -144.1 177.8 -129.2C196.2 -114.2 206.1 -91.7 212.2 -68.9C218.3 -46.2 220.7 -23.1 223.1 0L0 0Z" fill="#72888f"></path><path d="M0 -185.9C12.8 -159.2 25.6 -132.6 40.2 -123.6C54.8 -114.7 71.2 -123.5 90.7 -124.9C110.2 -126.2 132.8 -120.1 148.2 -107.6C163.5 -95.2 171.7 -76.4 176.8 -57.4C181.9 -38.5 183.9 -19.2 185.9 0L0 0Z" fill="#5d7a82"></path><path d="M0 -148.7C10.2 -127.4 20.4 -106 32.1 -98.9C43.8 -91.8 57 -98.8 72.6 -99.9C88.2 -101 106.2 -96.1 118.5 -86.1C130.8 -76.2 137.4 -61.2 141.4 -46C145.5 -30.8 147.1 -15.4 148.7 0L0 0Z" fill="#486d75"></path><path d="M0 -111.5C7.7 -95.5 15.3 -79.5 24.1 -74.2C32.9 -68.8 42.7 -74.1 54.4 -74.9C66.1 -75.7 79.7 -72.1 88.9 -64.6C98.1 -57.1 103 -45.9 106.1 -34.5C109.1 -23.1 110.3 -11.5 111.5 0L0 0Z" fill="#315f68"></path><path d="M0 -74.4C5.1 -63.7 10.2 -53 16.1 -49.5C21.9 -45.9 28.5 -49.4 36.3 -50C44.1 -50.5 53.1 -48 59.3 -43.1C65.4 -38.1 68.7 -30.6 70.7 -23C72.8 -15.4 73.6 -7.7 74.4 0L0 0Z" fill="#16525b"></path><path d="M0 -37.2C2.6 -31.8 5.1 -26.5 8 -24.7C11 -22.9 14.2 -24.7 18.1 -25C22 -25.2 26.6 -24 29.6 -21.5C32.7 -19 34.3 -15.3 35.4 -11.5C36.4 -7.7 36.8 -3.8 37.2 0L0 0Z" fill="#004c54"></path></g></svg>