<svg id="visual" viewBox="0 0 900 600" width="900" height="600" xmlns="http://www.w3.org/2000/svg" xmlns:xlink="http://www.w3.org/1999/xlink" version="1.1"><g transform="translate(335.9833919465294 369.8152591270865)"><path d="M151.8 -223.3C197.3 -236.7 235 -197.1 295.9 -151C356.9 -105 440.9 -52.5 417.3 -13.7C393.6 25.2 262.2 50.3 194 83.8C125.8 117.3 120.9 159.1 99.1 171.2C77.3 183.3 38.7 165.6 -1.2 167.8C-41.2 170 -82.3 191.9 -101.4 178.3C-120.4 164.6 -117.4 115.3 -107.7 79.7C-98.1 44 -81.9 22 -79.8 1.2C-77.8 -19.7 -90 -39.3 -122.3 -114.2C-154.6 -189.2 -207.1 -319.3 -190 -322.3C-173 -325.3 -86.5 -201.2 -16.7 -172.3C53.2 -143.4 106.3 -209.8 151.8 -223.3" fill="#08208e"></path></g></svg>