<svg id="visual" viewBox="0 0 900 600" width="900" height="600" xmlns="http://www.w3.org/2000/svg" xmlns:xlink="http://www.w3.org/1999/xlink" version="1.1"><g transform="translate(461.39629845958234 320.03421136986304)"><path d="M121.5 -169C157.3 -189.7 186 -156.9 201.6 -119.8C217.2 -82.7 219.6 -41.3 212.1 -4.3C204.6 32.7 187.2 65.3 156.6 76.4C126 87.6 82.2 77.1 54 89.5C25.7 101.8 12.8 136.9 0.9 135.3C-11 133.7 -22 95.4 -30.1 71.4C-38.2 47.4 -43.3 37.7 -77 28.2C-110.7 18.7 -172.8 9.3 -208.1 -20.3C-243.3 -50 -251.5 -100 -216.5 -107.1C-181.4 -114.1 -102.9 -78.3 -59.6 -53.3C-16.3 -28.3 -8.2 -14.2 17.3 -44.2C42.8 -74.2 85.7 -148.4 121.5 -169" fill="#08208e"></path></g></svg>