<svg id="visual" viewBox="0 0 900 600" width="900" height="600" xmlns="http://www.w3.org/2000/svg" xmlns:xlink="http://www.w3.org/1999/xlink" version="1.1"><rect x="0" y="0" width="900" height="600" fill="#acc0c6"></rect><defs><linearGradient id="grad1_0" x1="33.3%" y1="0%" x2="100%" y2="100%"><stop offset="20%" stop-color="#004c54" stop-opacity="1"></stop><stop offset="80%" stop-color="#004c54" stop-opacity="1"></stop></linearGradient></defs><defs><linearGradient id="grad1_1" x1="33.3%" y1="0%" x2="100%" y2="100%"><stop offset="20%" stop-color="#004c54" stop-opacity="1"></stop><stop offset="80%" stop-color="#245b64" stop-opacity="1"></stop></linearGradient></defs><defs><linearGradient id="grad1_2" x1="33.3%" y1="0%" x2="100%" y2="100%"><stop offset="20%" stop-color="#3d6b74" stop-opacity="1"></stop><stop offset="80%" stop-color="#245b64" stop-opacity="1"></stop></linearGradient></defs><defs><linearGradient id="grad1_3" x1="33.3%" y1="0%" x2="100%" y2="100%"><stop offset="20%" stop-color="#3d6b74" stop-opacity="1"></stop><stop offset="80%" stop-color="#537c84" stop-opacity="1"></stop></linearGradient></defs><defs><linearGradient id="grad1_4" x1="33.3%" y1="0%" x2="100%" y2="100%"><stop offset="20%" stop-color="#698c94" stop-opacity="1"></stop><stop offset="80%" stop-color="#537c84" stop-opacity="1"></stop></linearGradient></defs><defs><linearGradient id="grad1_5" x1="33.3%" y1="0%" x2="100%" y2="100%"><stop offset="20%" stop-color="#698c94" stop-opacity="1"></stop><stop offset="80%" stop-color="#7f9da5" stop-opacity="1"></stop></linearGradient></defs><defs><linearGradient id="grad1_6" x1="33.3%" y1="0%" x2="100%" y2="100%"><stop offset="20%" stop-color="#96aeb5" stop-opacity="1"></stop><stop offset="80%" stop-color="#7f9da5" stop-opacity="1"></stop></linearGradient></defs><defs><linearGradient id="grad1_7" x1="33.3%" y1="0%" x2="100%" y2="100%"><stop offset="20%" stop-color="#96aeb5" stop-opacity="1"></stop><stop offset="80%" stop-color="#acc0c6" stop-opacity="1"></stop></linearGradient></defs><defs><linearGradient id="grad2_0" x1="0%" y1="0%" x2="66.7%" y2="100%"><stop offset="20%" stop-color="#004c54" stop-opacity="1"></stop><stop offset="80%" stop-color="#004c54" stop-opacity="1"></stop></linearGradient></defs><defs><linearGradient id="grad2_1" x1="0%" y1="0%" x2="66.7%" y2="100%"><stop offset="20%" stop-color="#245b64" stop-opacity="1"></stop><stop offset="80%" stop-color="#004c54" stop-opacity="1"></stop></linearGradient></defs><defs><linearGradient id="grad2_2" x1="0%" y1="0%" x2="66.7%" y2="100%"><stop offset="20%" stop-color="#245b64" stop-opacity="1"></stop><stop offset="80%" stop-color="#3d6b74" stop-opacity="1"></stop></linearGradient></defs><defs><linearGradient id="grad2_3" x1="0%" y1="0%" x2="66.7%" y2="100%"><stop offset="20%" stop-color="#537c84" stop-opacity="1"></stop><stop offset="80%" stop-color="#3d6b74" stop-opacity="1"></stop></linearGradient></defs><defs><linearGradient id="grad2_4" x1="0%" y1="0%" x2="66.7%" y2="100%"><stop offset="20%" stop-color="#537c84" stop-opacity="1"></stop><stop offset="80%" stop-color="#698c94" stop-opacity="1"></stop></linearGradient></defs><defs><linearGradient id="grad2_5" x1="0%" y1="0%" x2="66.7%" y2="100%"><stop offset="20%" stop-color="#7f9da5" stop-opacity="1"></stop><stop offset="80%" stop-color="#698c94" stop-opacity="1"></stop></linearGradient></defs><defs><linearGradient id="grad2_6" x1="0%" y1="0%" x2="66.7%" y2="100%"><stop offset="20%" stop-color="#7f9da5" stop-opacity="1"></stop><stop offset="80%" stop-color="#96aeb5" stop-opacity="1"></stop></linearGradient></defs><defs><linearGradient id="grad2_7" x1="0%" y1="0%" x2="66.7%" y2="100%"><stop offset="20%" stop-color="#acc0c6" stop-opacity="1"></stop><stop offset="80%" stop-color="#96aeb5" stop-opacity="1"></stop></linearGradient></defs><g transform="translate(900, 0)"><path d="M0 297.5C-36.8 302.3 -73.7 307.2 -91.9 282.9C-110.2 258.6 -109.8 205.2 -132.8 182.8C-155.9 160.5 -202.3 169.3 -209.5 152.2C-216.8 135.2 -184.9 92.4 -193.1 62.7C-201.2 33.1 -249.3 16.5 -297.5 0L0 0Z" fill="#a1b7be"></path><path d="M0 260.3C-32.2 264.5 -64.5 268.8 -80.4 247.5C-96.4 226.3 -96.1 179.5 -116.2 160C-136.4 140.4 -177 148.1 -183.3 133.2C-189.7 118.3 -161.8 80.9 -168.9 54.9C-176 28.9 -218.2 14.5 -260.3 0L0 0Z" fill="#8aa6ad"></path><path d="M0 223.1C-27.6 226.7 -55.3 230.4 -68.9 212.2C-82.6 194 -82.4 153.9 -99.6 137.1C-116.9 120.4 -151.7 126.9 -157.2 114.2C-162.6 101.4 -138.7 69.3 -144.8 47C-150.9 24.8 -187 12.4 -223.1 0L0 0Z" fill="#74959c"></path><path d="M0 185.9C-23 189 -46 192 -57.4 176.8C-68.9 161.6 -68.6 128.2 -83 114.3C-97.4 100.3 -126.4 105.8 -131 95.1C-135.5 84.5 -115.6 57.8 -120.7 39.2C-125.7 20.7 -155.8 10.3 -185.9 0L0 0Z" fill="#5e848c"></path><path d="M0 148.7C-18.4 151.2 -36.8 153.6 -46 141.4C-55.1 129.3 -54.9 102.6 -66.4 91.4C-77.9 80.2 -101.1 84.6 -104.8 76.1C-108.4 67.6 -92.5 46.2 -96.5 31.4C-100.6 16.5 -124.7 8.3 -148.7 0L0 0Z" fill="#48737c"></path><path d="M0 111.5C-13.8 113.4 -27.6 115.2 -34.5 106.1C-41.3 97 -41.2 76.9 -49.8 68.6C-58.4 60.2 -75.9 63.5 -78.6 57.1C-81.3 50.7 -69.4 34.7 -72.4 23.5C-75.4 12.4 -93.5 6.2 -111.5 0L0 0Z" fill="#31636c"></path><path d="M0 74.4C-9.2 75.6 -18.4 76.8 -23 70.7C-27.5 64.7 -27.5 51.3 -33.2 45.7C-39 40.1 -50.6 42.3 -52.4 38.1C-54.2 33.8 -46.2 23.1 -48.3 15.7C-50.3 8.3 -62.3 4.1 -74.4 0L0 0Z" fill="#16545c"></path><path d="M0 37.2C-4.6 37.8 -9.2 38.4 -11.5 35.4C-13.8 32.3 -13.7 25.6 -16.6 22.9C-19.5 20.1 -25.3 21.2 -26.2 19C-27.1 16.9 -23.1 11.6 -24.1 7.8C-25.1 4.1 -31.2 2.1 -37.2 0L0 0Z" fill="#004c54"></path></g><g transform="translate(0, 600)"><path d="M0 -297.5C28.2 -283.4 56.5 -269.3 84.7 -260.6C112.9 -251.9 141 -248.6 172.2 -237C203.4 -225.5 237.6 -205.6 240.6 -174.8C243.7 -144.1 215.4 -102.3 219.7 -71.4C224 -40.4 260.7 -20.2 297.5 0L0 0Z" fill="#a1b7be"></path><path d="M0 -260.3C24.7 -247.9 49.4 -235.6 74.1 -228C98.8 -220.4 123.4 -217.5 150.7 -207.4C178 -197.3 207.9 -179.9 210.6 -153C213.2 -126.1 188.5 -89.6 192.2 -62.5C196 -35.4 228.1 -17.7 260.3 0L0 0Z" fill="#8aa6ad"></path><path d="M0 -223.1C21.2 -212.5 42.4 -202 63.5 -195.4C84.7 -188.9 105.8 -186.5 129.2 -177.8C152.6 -169.1 178.2 -154.2 180.5 -131.1C182.7 -108 161.6 -76.8 164.8 -53.5C168 -30.3 195.5 -15.2 223.1 0L0 0Z" fill="#74959c"></path><path d="M0 -185.9C17.6 -177.1 35.3 -168.3 52.9 -162.9C70.5 -157.4 88.1 -155.4 107.6 -148.2C127.1 -140.9 148.5 -128.5 150.4 -109.3C152.3 -90 134.6 -64 137.3 -44.6C140 -25.3 162.9 -12.6 185.9 0L0 0Z" fill="#5e848c"></path><path d="M0 -148.7C14.1 -141.7 28.2 -134.6 42.3 -130.3C56.4 -126 70.5 -124.3 86.1 -118.5C101.7 -112.7 118.8 -102.8 120.3 -87.4C121.8 -72 107.7 -51.2 109.8 -35.7C112 -20.2 130.4 -10.1 148.7 0L0 0Z" fill="#48737c"></path><path d="M0 -111.5C10.6 -106.3 21.2 -101 31.8 -97.7C42.3 -94.5 52.9 -93.2 64.6 -88.9C76.3 -84.6 89.1 -77.1 90.2 -65.6C91.4 -54 80.8 -38.4 82.4 -26.8C84 -15.2 97.8 -7.6 111.5 0L0 0Z" fill="#31636c"></path><path d="M0 -74.4C7.1 -70.8 14.1 -67.3 21.2 -65.1C28.2 -63 35.3 -62.2 43.1 -59.3C50.9 -56.4 59.4 -51.4 60.2 -43.7C60.9 -36 53.9 -25.6 54.9 -17.8C56 -10.1 65.2 -5.1 74.4 0L0 0Z" fill="#16545c"></path><path d="M0 -37.2C3.5 -35.4 7.1 -33.7 10.6 -32.6C14.1 -31.5 17.6 -31.1 21.5 -29.6C25.4 -28.2 29.7 -25.7 30.1 -21.9C30.5 -18 26.9 -12.8 27.5 -8.9C28 -5.1 32.6 -2.5 37.2 0L0 0Z" fill="#004c54"></path></g></svg>