<svg id="visual" viewBox="0 0 900 600" width="900" height="600" xmlns="http://www.w3.org/2000/svg" xmlns:xlink="http://www.w3.org/1999/xlink" version="1.1"><g transform="translate(457.22733873301536 306.56380012443515)"><path d="M133.7 -171.6C152.2 -143.9 131.5 -81.7 143.5 -23.8C155.6 34.1 200.3 87.8 193.7 123.7C187.1 159.5 129.1 177.5 76.5 186.2C23.9 194.8 -23.3 194.2 -57.3 174.5C-91.4 154.7 -112.4 115.9 -138.4 76.9C-164.4 38 -195.5 -1 -205.4 -52.1C-215.3 -103.2 -204.1 -166.5 -166.3 -190.9C-128.6 -215.2 -64.3 -200.6 -3.3 -196.6C57.6 -192.7 115.3 -199.4 133.7 -171.6" fill="#08208e"></path></g></svg>