<svg id="visual" viewBox="0 0 900 600" width="900" height="600" xmlns="http://www.w3.org/2000/svg" xmlns:xlink="http://www.w3.org/1999/xlink" version="1.1"><rect x="0" y="0" width="900" height="600" fill="#A5ACAF"></rect><defs><linearGradient id="grad1_0" x1="33.3%" y1="0%" x2="100%" y2="100%"><stop offset="20%" stop-color="#004c54" stop-opacity="1"></stop><stop offset="80%" stop-color="#004c54" stop-opacity="1"></stop></linearGradient></defs><defs><linearGradient id="grad1_1" x1="33.3%" y1="0%" x2="100%" y2="100%"><stop offset="20%" stop-color="#004c54" stop-opacity="1"></stop><stop offset="80%" stop-color="#255961" stop-opacity="1"></stop></linearGradient></defs><defs><linearGradient id="grad1_2" x1="33.3%" y1="0%" x2="100%" y2="100%"><stop offset="20%" stop-color="#3d666e" stop-opacity="1"></stop><stop offset="80%" stop-color="#255961" stop-opacity="1"></stop></linearGradient></defs><defs><linearGradient id="grad1_3" x1="33.3%" y1="0%" x2="100%" y2="100%"><stop offset="20%" stop-color="#3d666e" stop-opacity="1"></stop><stop offset="80%" stop-color="#52747c" stop-opacity="1"></stop></linearGradient></defs><defs><linearGradient id="grad1_4" x1="33.3%" y1="0%" x2="100%" y2="100%"><stop offset="20%" stop-color="#678189" stop-opacity="1"></stop><stop offset="80%" stop-color="#52747c" stop-opacity="1"></stop></linearGradient></defs><defs><linearGradient id="grad1_5" x1="33.3%" y1="0%" x2="100%" y2="100%"><stop offset="20%" stop-color="#678189" stop-opacity="1"></stop><stop offset="80%" stop-color="#7c8f96" stop-opacity="1"></stop></linearGradient></defs><defs><linearGradient id="grad1_6" x1="33.3%" y1="0%" x2="100%" y2="100%"><stop offset="20%" stop-color="#909da2" stop-opacity="1"></stop><stop offset="80%" stop-color="#7c8f96" stop-opacity="1"></stop></linearGradient></defs><defs><linearGradient id="grad1_7" x1="33.3%" y1="0%" x2="100%" y2="100%"><stop offset="20%" stop-color="#909da2" stop-opacity="1"></stop><stop offset="80%" stop-color="#a5acaf" stop-opacity="1"></stop></linearGradient></defs><defs><linearGradient id="grad2_0" x1="0%" y1="0%" x2="66.7%" y2="100%"><stop offset="20%" stop-color="#004c54" stop-opacity="1"></stop><stop offset="80%" stop-color="#004c54" stop-opacity="1"></stop></linearGradient></defs><defs><linearGradient id="grad2_1" x1="0%" y1="0%" x2="66.7%" y2="100%"><stop offset="20%" stop-color="#255961" stop-opacity="1"></stop><stop offset="80%" stop-color="#004c54" stop-opacity="1"></stop></linearGradient></defs><defs><linearGradient id="grad2_2" x1="0%" y1="0%" x2="66.7%" y2="100%"><stop offset="20%" stop-color="#255961" stop-opacity="1"></stop><stop offset="80%" stop-color="#3d666e" stop-opacity="1"></stop></linearGradient></defs><defs><linearGradient id="grad2_3" x1="0%" y1="0%" x2="66.7%" y2="100%"><stop offset="20%" stop-color="#52747c" stop-opacity="1"></stop><stop offset="80%" stop-color="#3d666e" stop-opacity="1"></stop></linearGradient></defs><defs><linearGradient id="grad2_4" x1="0%" y1="0%" x2="66.7%" y2="100%"><stop offset="20%" stop-color="#52747c" stop-opacity="1"></stop><stop offset="80%" stop-color="#678189" stop-opacity="1"></stop></linearGradient></defs><defs><linearGradient id="grad2_5" x1="0%" y1="0%" x2="66.7%" y2="100%"><stop offset="20%" stop-color="#7c8f96" stop-opacity="1"></stop><stop offset="80%" stop-color="#678189" stop-opacity="1"></stop></linearGradient></defs><defs><linearGradient id="grad2_6" x1="0%" y1="0%" x2="66.7%" y2="100%"><stop offset="20%" stop-color="#7c8f96" stop-opacity="1"></stop><stop offset="80%" stop-color="#909da2" stop-opacity="1"></stop></linearGradient></defs><defs><linearGradient id="grad2_7" x1="0%" y1="0%" x2="66.7%" y2="100%"><stop offset="20%" stop-color="#a5acaf" stop-opacity="1"></stop><stop offset="80%" stop-color="#909da2" stop-opacity="1"></stop></linearGradient></defs><g transform="translate(900, 0)"><path d="M0 297.5C-26.1 267.6 -52.2 237.8 -70.5 216.8C-88.8 195.9 -99.3 183.7 -132.8 182.8C-166.4 182 -223.1 192.4 -240.6 174.8C-258.2 157.3 -236.7 111.7 -239.7 77.9C-242.6 44.1 -270 22 -297.5 0L0 0Z" fill="#9ba5a9"></path><path d="M0 260.3C-22.8 234.2 -45.6 208.1 -61.6 189.7C-77.7 171.4 -86.9 160.7 -116.2 160C-145.6 159.2 -195.2 168.4 -210.6 153C-225.9 137.6 -207.1 97.7 -209.7 68.1C-212.3 38.6 -236.3 19.3 -260.3 0L0 0Z" fill="#86969c"></path><path d="M0 223.1C-19.6 200.7 -39.1 178.4 -52.8 162.6C-66.6 146.9 -74.4 137.8 -99.6 137.1C-124.8 136.5 -167.3 144.3 -180.5 131.1C-193.7 118 -177.5 83.8 -179.7 58.4C-182 33 -202.5 16.5 -223.1 0L0 0Z" fill="#72888f"></path><path d="M0 185.9C-16.3 167.3 -32.6 148.6 -44 135.5C-55.5 122.4 -62 114.8 -83 114.3C-104 113.7 -139.4 120.3 -150.4 109.3C-161.4 98.3 -147.9 69.8 -149.8 48.7C-151.6 27.5 -168.8 13.8 -185.9 0L0 0Z" fill="#5d7a82"></path><path d="M0 148.7C-13 133.8 -26.1 118.9 -35.2 108.4C-44.4 97.9 -49.6 91.8 -66.4 91.4C-83.2 91 -111.5 96.2 -120.3 87.4C-129.1 78.6 -118.4 55.8 -119.8 38.9C-121.3 22 -135 11 -148.7 0L0 0Z" fill="#486d75"></path><path d="M0 111.5C-9.8 100.4 -19.6 89.2 -26.4 81.3C-33.3 73.4 -37.2 68.9 -49.8 68.6C-62.4 68.2 -83.7 72.2 -90.2 65.6C-96.8 59 -88.8 41.9 -89.9 29.2C-91 16.5 -101.3 8.3 -111.5 0L0 0Z" fill="#315f68"></path><path d="M0 74.4C-6.5 66.9 -13 59.5 -17.6 54.2C-22.2 49 -24.8 45.9 -33.2 45.7C-41.6 45.5 -55.8 48.1 -60.2 43.7C-64.6 39.3 -59.2 27.9 -59.9 19.5C-60.7 11 -67.5 5.5 -74.4 0L0 0Z" fill="#16525b"></path><path d="M0 37.2C-3.3 33.5 -6.5 29.7 -8.8 27.1C-11.1 24.5 -12.4 23 -16.6 22.9C-20.8 22.7 -27.9 24.1 -30.1 21.9C-32.3 19.7 -29.6 14 -30 9.7C-30.3 5.5 -33.8 2.8 -37.2 0L0 0Z" fill="#004c54"></path></g><g transform="translate(0, 600)"><path d="M0 -297.5C16.1 -248.7 32.2 -200 64.3 -197.8C96.4 -195.7 144.5 -240.1 174.8 -240.6C205.1 -241.2 217.6 -198 226.5 -164.6C235.4 -131.2 240.8 -107.7 252 -81.9C263.3 -56.1 280.4 -28.1 297.5 0L0 0Z" fill="#9ba5a9"></path><path d="M0 -260.3C14.1 -217.6 28.1 -175 56.2 -173.1C84.3 -171.2 126.5 -210.1 153 -210.6C179.5 -211.1 190.4 -173.2 198.2 -144C206 -114.8 210.7 -94.2 220.5 -71.7C230.4 -49.1 245.3 -24.5 260.3 0L0 0Z" fill="#86969c"></path><path d="M0 -223.1C12.1 -186.5 24.1 -150 48.2 -148.4C72.3 -146.7 108.4 -180.1 131.1 -180.5C153.9 -180.9 163.2 -148.5 169.9 -123.4C176.6 -98.4 180.6 -80.8 189 -61.4C197.4 -42.1 210.3 -21 223.1 0L0 0Z" fill="#72888f"></path><path d="M0 -185.9C10.1 -155.4 20.1 -125 40.2 -123.6C60.2 -122.3 90.3 -150 109.3 -150.4C128.2 -150.8 136 -123.7 141.6 -102.9C147.1 -82 150.5 -67.3 157.5 -51.2C164.5 -35.1 175.2 -17.5 185.9 0L0 0Z" fill="#5d7a82"></path><path d="M0 -148.7C8 -124.4 16.1 -100 32.1 -98.9C48.2 -97.8 72.3 -120 87.4 -120.3C102.6 -120.6 108.8 -99 113.3 -82.3C117.7 -65.6 120.4 -53.8 126 -40.9C131.6 -28.1 140.2 -14 148.7 0L0 0Z" fill="#486d75"></path><path d="M0 -111.5C6 -93.3 12.1 -75 24.1 -74.2C36.1 -73.4 54.2 -90 65.6 -90.2C76.9 -90.5 81.6 -74.2 84.9 -61.7C88.3 -49.2 90.3 -40.4 94.5 -30.7C98.7 -21 105.1 -10.5 111.5 0L0 0Z" fill="#315f68"></path><path d="M0 -74.4C4 -62.2 8 -50 16.1 -49.5C24.1 -48.9 36.1 -60 43.7 -60.2C51.3 -60.3 54.4 -49.5 56.6 -41.1C58.9 -32.8 60.2 -26.9 63 -20.5C65.8 -14 70.1 -7 74.4 0L0 0Z" fill="#16525b"></path><path d="M0 -37.2C2 -31.1 4 -25 8 -24.7C12 -24.5 18.1 -30 21.9 -30.1C25.6 -30.2 27.2 -24.7 28.3 -20.6C29.4 -16.4 30.1 -13.5 31.5 -10.2C32.9 -7 35 -3.5 37.2 0L0 0Z" fill="#004c54"></path></g></svg>