<svg id="visual" viewBox="0 0 675 900" width="675" height="900" xmlns="http://www.w3.org/2000/svg" xmlns:xlink="http://www.w3.org/1999/xlink" version="1.1"><g transform="translate(298.56248898032334 419.6358919787359)"><path d="M139.5 -244.1C184.9 -215.3 228.9 -186.4 262.4 -145.7C295.9 -105 318.9 -52.5 327.6 5C336.3 62.5 330.5 125 308.7 185.9C286.8 246.8 248.9 306.1 194.8 332C140.6 357.9 70.3 350.5 26.4 304.8C-17.6 259.1 -35.2 175.2 -51.9 127.7C-68.6 80.2 -84.6 69.1 -130.8 53.9C-177 38.7 -253.5 19.3 -253.6 -0.1C-253.8 -19.5 -177.5 -39 -131.8 -55C-86 -71 -70.8 -83.6 -53.9 -128.8C-37 -174.1 -18.5 -252 14.2 -276.7C47 -301.4 94 -272.8 139.5 -244.1" fill="#08218e"></path></g></svg>