<svg id="visual" viewBox="0 0 900 600" width="900" height="600" xmlns="http://www.w3.org/2000/svg" xmlns:xlink="http://www.w3.org/1999/xlink" version="1.1"><rect x="0" y="0" width="900" height="600" fill="#acc0c6"></rect><defs><linearGradient id="grad1_0" x1="33.3%" y1="0%" x2="100%" y2="100%"><stop offset="20%" stop-color="#004c54" stop-opacity="1"></stop><stop offset="80%" stop-color="#004c54" stop-opacity="1"></stop></linearGradient></defs><defs><linearGradient id="grad1_1" x1="33.3%" y1="0%" x2="100%" y2="100%"><stop offset="20%" stop-color="#004c54" stop-opacity="1"></stop><stop offset="80%" stop-color="#245b64" stop-opacity="1"></stop></linearGradient></defs><defs><linearGradient id="grad1_2" x1="33.3%" y1="0%" x2="100%" y2="100%"><stop offset="20%" stop-color="#3d6b74" stop-opacity="1"></stop><stop offset="80%" stop-color="#245b64" stop-opacity="1"></stop></linearGradient></defs><defs><linearGradient id="grad1_3" x1="33.3%" y1="0%" x2="100%" y2="100%"><stop offset="20%" stop-color="#3d6b74" stop-opacity="1"></stop><stop offset="80%" stop-color="#537c84" stop-opacity="1"></stop></linearGradient></defs><defs><linearGradient id="grad1_4" x1="33.3%" y1="0%" x2="100%" y2="100%"><stop offset="20%" stop-color="#698c94" stop-opacity="1"></stop><stop offset="80%" stop-color="#537c84" stop-opacity="1"></stop></linearGradient></defs><defs><linearGradient id="grad1_5" x1="33.3%" y1="0%" x2="100%" y2="100%"><stop offset="20%" stop-color="#698c94" stop-opacity="1"></stop><stop offset="80%" stop-color="#7f9da5" stop-opacity="1"></stop></linearGradient></defs><defs><linearGradient id="grad1_6" x1="33.3%" y1="0%" x2="100%" y2="100%"><stop offset="20%" stop-color="#96aeb5" stop-opacity="1"></stop><stop offset="80%" stop-color="#7f9da5" stop-opacity="1"></stop></linearGradient></defs><defs><linearGradient id="grad1_7" x1="33.3%" y1="0%" x2="100%" y2="100%"><stop offset="20%" stop-color="#96aeb5" stop-opacity="1"></stop><stop offset="80%" stop-color="#acc0c6" stop-opacity="1"></stop></linearGradient></defs><defs><linearGradient id="grad2_0" x1="0%" y1="0%" x2="66.7%" y2="100%"><stop offset="20%" stop-color="#004c54" stop-opacity="1"></stop><stop offset="80%" stop-color="#004c54" stop-opacity="1"></stop></linearGradient></defs><defs><linearGradient id="grad2_1" x1="0%" y1="0%" x2="66.7%" y2="100%"><stop offset="20%" stop-color="#245b64" stop-opacity="1"></stop><stop offset="80%" stop-color="#004c54" stop-opacity="1"></stop></linearGradient></defs><defs><linearGradient id="grad2_2" x1="0%" y1="0%" x2="66.7%" y2="100%"><stop offset="20%" stop-color="#245b64" stop-opacity="1"></stop><stop offset="80%" stop-color="#3d6b74" stop-opacity="1"></stop></linearGradient></defs><defs><linearGradient id="grad2_3" x1="0%" y1="0%" x2="66.7%" y2="100%"><stop offset="20%" stop-color="#537c84" stop-opacity="1"></stop><stop offset="80%" stop-color="#3d6b74" stop-opacity="1"></stop></linearGradient></defs><defs><linearGradient id="grad2_4" x1="0%" y1="0%" x2="66.7%" y2="100%"><stop offset="20%" stop-color="#537c84" stop-opacity="1"></stop><stop offset="80%" stop-color="#698c94" stop-opacity="1"></stop></linearGradient></defs><defs><linearGradient id="grad2_5" x1="0%" y1="0%" x2="66.7%" y2="100%"><stop offset="20%" stop-color="#7f9da5" stop-opacity="1"></stop><stop offset="80%" stop-color="#698c94" stop-opacity="1"></stop></linearGradient></defs><defs><linearGradient id="grad2_6" x1="0%" y1="0%" x2="66.7%" y2="100%"><stop offset="20%" stop-color="#7f9da5" stop-opacity="1"></stop><stop offset="80%" stop-color="#96aeb5" stop-opacity="1"></stop></linearGradient></defs><defs><linearGradient id="grad2_7" x1="0%" y1="0%" x2="66.7%" y2="100%"><stop offset="20%" stop-color="#acc0c6" stop-opacity="1"></stop><stop offset="80%" stop-color="#96aeb5" stop-opacity="1"></stop></linearGradient></defs><g transform="translate(900, 0)"><path d="M0 297.5C-37 302.8 -74 308.1 -91.9 282.9C-109.8 257.7 -108.7 202 -132.3 182C-155.8 162 -204 177.7 -229.8 166.9C-255.5 156.1 -258.8 118.8 -266.3 86.5C-273.8 54.3 -285.6 27.1 -297.5 0L0 0Z" fill="#a1b7be"></path><path d="M0 260.3C-32.4 264.9 -64.7 269.6 -80.4 247.5C-96.1 225.5 -95.1 176.8 -115.7 159.3C-136.3 141.8 -178.5 155.5 -201 146.1C-223.6 136.6 -226.4 103.9 -233 75.7C-239.6 47.5 -249.9 23.7 -260.3 0L0 0Z" fill="#8aa6ad"></path><path d="M0 223.1C-27.7 227.1 -55.5 231.1 -68.9 212.2C-82.4 193.3 -81.5 151.5 -99.2 136.5C-116.8 121.5 -153 133.3 -172.3 125.2C-191.6 117.1 -194.1 89.1 -199.7 64.9C-205.4 40.7 -214.2 20.4 -223.1 0L0 0Z" fill="#74959c"></path><path d="M0 185.9C-23.1 189.2 -46.2 192.6 -57.4 176.8C-68.7 161.1 -67.9 126.3 -82.7 113.8C-97.4 101.3 -127.5 111.1 -143.6 104.3C-159.7 97.6 -161.7 74.2 -166.4 54.1C-171.1 33.9 -178.5 17 -185.9 0L0 0Z" fill="#5e848c"></path><path d="M0 148.7C-18.5 151.4 -37 154 -46 141.4C-54.9 128.9 -54.4 101 -66.1 91C-77.9 81 -102 88.9 -114.9 83.5C-127.8 78.1 -129.4 59.4 -133.1 43.3C-136.9 27.1 -142.8 13.6 -148.7 0L0 0Z" fill="#48737c"></path><path d="M0 111.5C-13.9 113.5 -27.7 115.5 -34.5 106.1C-41.2 96.6 -40.8 75.8 -49.6 68.3C-58.4 60.8 -76.5 66.7 -86.2 62.6C-95.8 58.5 -97 44.5 -99.9 32.4C-102.7 20.4 -107.1 10.2 -111.5 0L0 0Z" fill="#31636c"></path><path d="M0 74.4C-9.2 75.7 -18.5 77 -23 70.7C-27.5 64.4 -27.2 50.5 -33.1 45.5C-38.9 40.5 -51 44.4 -57.4 41.7C-63.9 39 -64.7 29.7 -66.6 21.6C-68.5 13.6 -71.4 6.8 -74.4 0L0 0Z" fill="#16545c"></path><path d="M0 37.2C-4.6 37.8 -9.2 38.5 -11.5 35.4C-13.7 32.2 -13.6 25.3 -16.5 22.8C-19.5 20.3 -25.5 22.2 -28.7 20.9C-31.9 19.5 -32.3 14.8 -33.3 10.8C-34.2 6.8 -35.7 3.4 -37.2 0L0 0Z" fill="#004c54"></path></g><g transform="translate(0, 600)"><path d="M0 -297.5C28.1 -288.4 56.2 -279.3 89 -273.9C121.8 -268.6 159.3 -266.9 174.8 -240.6C190.3 -214.3 183.8 -163.4 178.8 -129.9C173.8 -96.4 170.2 -80.5 190.2 -61.8C210.2 -43.1 253.8 -21.5 297.5 0L0 0Z" fill="#a1b7be"></path><path d="M0 -260.3C24.6 -252.3 49.2 -244.3 77.9 -239.7C106.6 -235 139.4 -233.6 153 -210.6C166.6 -187.6 160.9 -142.9 156.4 -113.7C152 -84.4 148.9 -70.5 166.4 -54.1C184 -37.7 222.1 -18.8 260.3 0L0 0Z" fill="#8aa6ad"></path><path d="M0 -223.1C21.1 -216.3 42.1 -209.4 66.7 -205.4C91.4 -201.4 119.5 -200.2 131.1 -180.5C142.8 -160.8 137.9 -122.5 134.1 -97.4C130.3 -72.3 127.6 -60.4 142.7 -46.4C157.7 -32.3 190.4 -16.2 223.1 0L0 0Z" fill="#74959c"></path><path d="M0 -185.9C17.6 -180.2 35.1 -174.5 55.6 -171.2C76.1 -167.8 99.6 -166.8 109.3 -150.4C119 -134 114.9 -102.1 111.7 -81.2C108.6 -60.3 106.4 -50.3 118.9 -38.6C131.4 -26.9 158.7 -13.5 185.9 0L0 0Z" fill="#5e848c"></path><path d="M0 -148.7C14 -144.2 28.1 -139.6 44.5 -137C60.9 -134.3 79.7 -133.5 87.4 -120.3C95.2 -107.2 91.9 -81.7 89.4 -65C86.9 -48.2 85.1 -40.3 95.1 -30.9C105.1 -21.5 126.9 -10.8 148.7 0L0 0Z" fill="#48737c"></path><path d="M0 -111.5C10.5 -108.1 21.1 -104.7 33.4 -102.7C45.7 -100.7 59.8 -100.1 65.6 -90.2C71.4 -80.4 68.9 -61.3 67 -48.7C65.2 -36.2 63.8 -30.2 71.3 -23.2C78.8 -16.2 95.2 -8.1 111.5 0L0 0Z" fill="#31636c"></path><path d="M0 -74.4C7 -72.1 14 -69.8 22.2 -68.5C30.5 -67.1 39.8 -66.7 43.7 -60.2C47.6 -53.6 46 -40.8 44.7 -32.5C43.4 -24.1 42.5 -20.1 47.6 -15.5C52.6 -10.8 63.5 -5.4 74.4 0L0 0Z" fill="#16545c"></path><path d="M0 -37.2C3.5 -36 7 -34.9 11.1 -34.2C15.2 -33.6 19.9 -33.4 21.9 -30.1C23.8 -26.8 23 -20.4 22.3 -16.2C21.7 -12.1 21.3 -10.1 23.8 -7.7C26.3 -5.4 31.7 -2.7 37.2 0L0 0Z" fill="#004c54"></path></g></svg>