<svg width="1000" height="600" xmlns="http://www.w3.org/2000/svg"><defs><linearGradient id="a" gradientTransform="rotate(90)"><stop offset="5%" stop-color="#deaf24"/><stop offset="95%" stop-color="#e6c35a"/></linearGradient><linearGradient id="b" gradientTransform="rotate(90)"><stop offset="5%" stop-color="#c6a12f"/><stop offset="95%" stop-color="#d4b863"/></linearGradient><linearGradient id="c" gradientTransform="rotate(90)"><stop offset="5%" stop-color="#af943b"/><stop offset="95%" stop-color="#c3ae6c"/></linearGradient><linearGradient id="d" gradientTransform="rotate(90)"><stop offset="5%" stop-color="#978647"/><stop offset="95%" stop-color="#b1a475"/></linearGradient><linearGradient id="e" gradientTransform="rotate(90)"><stop offset="5%" stop-color="#807952"/><stop offset="95%" stop-color="#9f9a7d"/></linearGradient><linearGradient id="f" gradientTransform="rotate(90)"><stop offset="5%" stop-color="#686b5e"/><stop offset="95%" stop-color="#8d9086"/></linearGradient><linearGradient id="g" gradientTransform="rotate(90)"><stop offset="5%" stop-color="#515e69"/><stop offset="95%" stop-color="#7c868e"/></linearGradient><linearGradient id="h" gradientTransform="rotate(90)"><stop offset="5%" stop-color="#395075"/><stop offset="95%" stop-color="#6a7b97"/></linearGradient><linearGradient id="i" gradientTransform="rotate(90)"><stop offset="5%" stop-color="#526686"/><stop offset="95%" stop-color="#7d8ca4"/></linearGradient><linearGradient id="j" gradientTransform="rotate(90)"><stop offset="5%" stop-color="#6b7c98"/><stop offset="95%" stop-color="#909cb1"/></linearGradient><linearGradient id="k" gradientTransform="rotate(90)"><stop offset="5%" stop-color="#8392a9"/><stop offset="95%" stop-color="#a2adbe"/></linearGradient><linearGradient id="l" gradientTransform="rotate(90)"><stop offset="5%" stop-color="#9ca8ba"/><stop offset="95%" stop-color="#b4bdcb"/></linearGradient><linearGradient id="m" gradientTransform="rotate(90)"><stop offset="5%" stop-color="#b5bdcb"/><stop offset="95%" stop-color="#c7cdd8"/></linearGradient><linearGradient id="n" gradientTransform="rotate(90)"><stop offset="5%" stop-color="#ced3dd"/><stop offset="95%" stop-color="#dadee5"/></linearGradient><linearGradient id="o" gradientTransform="rotate(90)"><stop offset="5%" stop-color="#e6e9ee"/><stop offset="95%" stop-color="#eceef2"/></linearGradient><linearGradient id="p" gradientTransform="rotate(90)"><stop offset="5%" stop-color="#fff"/><stop offset="95%" stop-color="#fff"/></linearGradient></defs><path fill="#f5bc18" d="M0 0h1000v600H0z"/><path d="M0 35c15.796 2.441 31.592 4.882 43 3 11.408-1.882 18.43-8.087 29-12 10.57-3.913 24.692-5.535 39 0s28.803 18.226 42 18c13.197-.226 25.096-13.368 39-18s29.813-.755 43 5c13.187 5.755 23.652 13.387 34 14 10.348.613 20.58-5.795 33-11 12.42-5.205 27.03-9.21 40-10 12.97-.79 24.303 1.632 38 5 13.697 3.368 29.76 7.682 43 10 13.24 2.318 23.66 2.64 36 2 12.34-.64 26.6-2.241 42-2 15.4.241 31.939 2.325 43 0s16.645-9.06 28-9c11.355.06 28.48 6.913 44 8 15.52 1.087 29.433-3.593 41-7s20.788-5.54 34-7 30.416-2.248 42 1 17.55 10.532 31 11c13.45.468 34.385-5.878 49-4 14.615 1.878 22.91 11.981 33 12 10.09.019 21.974-10.048 34-13s24.192 1.209 38 2c13.808.791 29.256-1.787 46-2 16.744-.213 34.784 1.94 41 3 6.216 1.06.608 1.03 35 1l-40 565H0Z" fill="url(#a)"/><path d="M0 70c12.652-3.81 25.304-7.619 38-9 12.696-1.381 25.437-.334 38 5 12.563 5.334 24.948 14.955 38 13s26.773-15.486 38-16c11.227-.514 19.962 11.989 34 15 14.038 3.011 33.38-3.469 48-8 14.62-4.531 24.517-7.115 36-4s24.551 11.927 37 14c12.449 2.073 24.279-2.592 37-3 12.721-.408 26.335 3.442 39 3 12.665-.442 24.383-5.178 39-9s32.132-6.732 44-9c11.868-2.268 18.087-3.895 29 0s26.518 13.311 42 12 30.84-13.351 43-13c12.16.351 21.12 13.093 34 14 12.88.907 29.682-10.02 44-13 14.318-2.98 26.154 1.984 39 6s26.702 7.084 37 7c10.298-.084 17.039-3.32 30-5 12.961-1.68 32.143-1.804 46 1 13.857 2.804 22.39 8.538 35 7 12.61-1.538 29.299-10.346 44-12s27.415 3.845 39 4c11.585.155 22.042-5.035 36-3 13.958 2.035 31.417 11.296 38 13 6.583 1.704 2.292-4.148 38-10l-40 530H0Z" fill="url(#b)"/><path d="M0 105c12.06 2.084 24.119 4.168 37 4 12.881-.168 26.584-2.588 39-1s23.546 7.184 35 5 23.233-12.146 38-15c14.767-2.854 32.523 1.401 45 6 12.477 4.599 19.675 9.54 32 7 12.325-2.54 29.776-12.565 43-16 13.224-3.435 22.221-.281 35 5s29.338 12.69 45 11c15.662-1.69 30.425-12.476 41-12 10.575.476 16.96 12.215 29 15s29.732-3.384 43-6 22.113-1.677 33-5 23.817-10.906 37-8c13.183 2.906 26.62 16.303 41 18 14.38 1.697 29.705-8.306 42-13 12.295-4.694 21.56-4.078 34-2 12.44 2.078 28.053 5.62 42 8s26.229 3.6 40 5 29.032 2.98 42 5 23.641 4.48 37-1c13.359-5.48 29.402-18.897 41-20 11.598-1.103 18.751 10.108 31 13 12.249 2.892 29.592-2.534 43-6 13.408-3.466 22.879-4.972 36-6 13.121-1.028 29.892-1.58 37 0 7.108 1.58 4.554 5.29 42 9l-40 495H0Z" fill="url(#c)"/><path d="M0 141c10.201-1.354 20.402-2.709 33 0 12.598 2.709 27.591 9.48 42 8 14.409-1.48 28.232-11.212 40-15 11.768-3.788 21.482-1.632 34 0s27.84 2.74 42 5 27.16 5.674 40 6c12.84.326 25.523-2.434 39-4 13.477-1.566 27.75-1.938 41 0s25.479 6.185 38 9c12.521 2.815 25.334 4.199 38 0s25.184-13.98 38-17c12.816-3.02 25.93.718 38 3s23.095 3.108 34 1c10.905-2.108 21.688-7.148 36-6 14.312 1.148 32.153 8.485 45 13 12.847 4.515 20.702 6.207 33 6 12.298-.207 29.04-2.313 43-3 13.96-.687 25.139.045 38 1s27.405 2.134 41-2c13.595-4.134 26.24-13.58 37-15 10.76-1.42 19.633 5.187 32 11s28.229 10.831 42 8c13.771-2.831 25.453-13.513 40-13 14.547.513 31.961 12.22 44 13 12.039.78 18.703-9.367 32-11 13.297-1.633 33.228 5.248 41 7 7.772 1.752 3.386-1.624 39-5l-40 459H0Z" fill="url(#d)"/><path d="M0 176c11.061 3.942 22.122 7.884 34 4 11.878-3.884 24.573-15.596 38-13s27.586 19.498 40 19c12.414-.498 23.084-18.397 36-19 12.916-.603 28.08 16.089 41 19 12.92 2.911 23.599-7.957 38-12s32.526-1.259 47-2c14.474-.741 25.299-5.008 36-1s21.278 16.29 34 15c12.722-1.29 27.588-16.151 41-17 13.412-.849 25.37 12.316 39 15 13.63 2.684 28.93-5.112 40-10s17.907-6.869 30-8c12.093-1.131 29.443-1.413 45 2 15.557 3.413 29.321 10.522 42 14 12.679 3.478 24.272 3.326 36 3 11.728-.326 23.591-.826 36 0 12.409.826 25.364 2.976 38-1s24.955-14.08 39-18c14.045-3.92 29.818-1.657 42 2 12.182 3.657 20.774 8.71 34 7 13.226-1.71 31.086-10.18 44-9 12.914 1.18 20.88 12.012 33 14 12.12 1.988 28.393-4.87 40-6s18.548 3.465 33 6c14.452 2.535 36.415 3.01 45 2 8.585-1.01 3.793-3.505 39-6l-40 424H0Z" fill="url(#e)"/><path d="M0 211c14.875-1.657 29.75-3.313 41-1s18.875 8.596 31 8c12.125-.596 28.749-8.071 42-11 13.251-2.929 23.13-1.311 37-2 13.87-.689 31.733-3.683 46-4 14.267-.317 24.94 2.043 35 5 10.06 2.957 19.507 6.51 32 8 12.493 1.49 28.03.917 43-1 14.97-1.917 29.371-5.178 43-4 13.629 1.178 26.485 6.793 38 5 11.515-1.793 21.688-10.996 35-11 13.312-.004 29.763 9.19 42 11 12.237 1.81 20.262-3.765 31-4 10.738-.235 24.191 4.868 37 6 12.809 1.132 24.973-1.707 39-2 14.027-.293 29.915 1.961 42 0s20.367-8.138 34-9c13.633-.862 32.617 3.59 48 4 15.383.41 27.164-3.221 38-4 10.836-.779 20.726 1.295 34 2 13.274.705 29.932.042 42-1 12.068-1.042 19.548-2.464 33-1 13.452 1.464 32.878 5.812 45 8 12.122 2.188 16.94 2.215 29 2 12.06-.215 31.362-.673 49-3s33.61-6.522 39-7c5.39-.478.195 2.76 35 6l-40 389H0Z" fill="url(#f)"/><path d="M0 247c16.202-1.514 32.404-3.027 43-3 10.596.027 15.585 1.596 28 3s32.256 2.644 47 5 24.392 5.829 36 3c11.608-2.829 25.176-11.96 39-14 13.824-2.04 27.904 3.008 40 6s22.209 3.926 35 5c12.791 1.074 28.261 2.288 40 0s19.747-8.078 33-9c13.253-.922 31.752 3.025 47 3 15.248-.025 27.245-4.023 39-1 11.755 3.023 23.266 13.067 36 12 12.734-1.067 26.69-13.246 40-16 13.31-2.754 25.975 3.917 39 5 13.025 1.083 26.409-3.42 37-5 10.591-1.58 18.39-.234 31 1s30.033 2.357 44 4c13.967 1.643 24.479 3.806 36 3s24.051-4.58 37-3c12.949 1.58 26.315 8.513 39 6 12.685-2.513 24.687-14.471 38-15 13.313-.529 27.937 10.372 40 14 12.063 3.628 21.564-.017 36-1s33.808.695 48 1c14.192.305 23.206-.764 37-2s32.37-2.639 39-3c6.63-.361 1.315.32 36 1l-40 353H0Z" fill="url(#g)"/><path d="M0 282c13.311 2.37 26.622 4.74 39 4 12.378-.74 23.822-4.59 35-7s22.088-3.378 37-2c14.912 1.378 33.825 5.101 47 6 13.175.899 20.612-1.027 31 0 10.388 1.027 23.727 5.006 39 3 15.273-2.006 32.481-9.996 44-13 11.519-3.004 17.35-1.023 31 4 13.65 5.023 35.122 13.087 48 13 12.878-.087 17.162-8.327 28-9 10.838-.673 28.23 6.22 42 6 13.77-.22 23.919-7.55 37-11s29.095-3.017 41 1c11.905 4.017 19.702 11.617 34 10 14.298-1.617 35.096-12.45 48-13 12.904-.55 17.915 9.187 29 13 11.085 3.813 28.245 1.705 44-3 15.755-4.705 30.103-12.005 43-10 12.897 2.005 24.34 13.317 35 17s20.533-.26 35-1c14.467-.74 33.528 1.727 45 0 11.472-1.727 15.357-7.647 28-8 12.643-.353 34.045 4.861 48 5 13.955.139 20.462-4.798 32-6s28.106 1.33 45 3 34.112 2.477 40 2c5.888-.477.444-2.239 35-4l-40 318H0Z" fill="url(#h)"/><path d="M0 317c11.958-2.422 23.915-4.844 37-4 13.085.844 27.296 4.955 41 8s26.9 5.024 38 5c11.1-.024 20.106-2.05 32-4 11.894-1.95 26.676-3.825 42-4 15.324-.175 31.192 1.351 45 3s25.558 3.42 37 1 22.577-9.03 35-9c12.423.03 26.135 6.7 38 11 11.865 4.3 21.882 6.23 35 2 13.118-4.23 29.335-14.617 44-18 14.665-3.383 27.778.237 41 3 13.222 2.763 26.555 4.668 39 3 12.445-1.668 24.003-6.911 35-6 10.997.911 21.435 7.975 33 11 11.565 3.025 24.259 2.01 40 3 15.741.99 34.53 3.987 47 4 12.47.013 18.62-2.956 31-4 12.38-1.044 30.993-.164 44-4 13.007-3.836 20.41-12.39 32-10 11.59 2.39 27.366 15.723 41 16 13.634.277 25.125-12.502 37-13 11.875-.498 24.132 11.287 39 11 14.868-.287 32.346-12.644 45-14 12.654-1.356 20.484 8.289 33 11 12.516 2.711 29.719-1.511 37-3 7.281-1.489 4.64-.244 42 1l-40 283H0Z" fill="url(#i)"/><path d="M0 352c10.687 3.727 21.375 7.455 33 5s24.189-11.092 38-10c13.811 1.092 28.87 11.914 42 13 13.13 1.086 24.331-7.565 37-8 12.669-.435 26.805 7.346 41 8 14.195.654 28.448-5.818 42-8 13.552-2.182 26.401-.074 38 0s21.947-1.887 35-5 28.812-7.38 41-4c12.188 3.38 20.807 14.406 34 16 13.193 1.594 30.962-6.243 46-7 15.038-.757 27.346 5.568 38 9 10.654 3.432 19.654 3.972 33 0s31.04-12.455 45-14 24.19 3.85 36 4c11.81.15 25.203-4.944 38-5 12.797-.056 25 4.925 36 8s20.796 4.243 35 5c14.204.757 32.816 1.104 46-1 13.184-2.104 20.94-6.659 33-6 12.06.659 28.425 6.531 43 7 14.575.469 27.36-4.466 38-8s19.133-5.668 32-3 30.109 10.138 45 10c14.891-.138 27.432-7.883 40-12 12.568-4.117 25.162-4.605 31-3 5.838 1.605 4.919 5.302 44 9l-40 248H0Z" fill="url(#j)"/><path d="M0 388c10.644 5.173 21.288 10.346 35 7s30.492-15.21 45-16c14.508-.79 26.743 9.494 40 15 13.257 5.506 27.535 6.232 38 3s17.118-10.424 30-14c12.882-3.576 31.992-3.538 47 1s25.914 13.576 38 11c12.086-2.576 25.354-16.765 37-17 11.646-.235 21.671 13.484 34 15s26.962-9.172 41-13c14.038-3.828 27.481-.798 41 5 13.519 5.798 27.113 14.362 40 12s25.067-15.652 38-18c12.933-2.348 26.619 6.246 38 10 11.381 3.754 20.458 2.67 33-1 12.542-3.67 28.548-9.925 41-9 12.452.925 21.349 9.03 35 13 13.651 3.97 32.057 3.806 46 0 13.943-3.806 23.425-11.254 36-10 12.575 1.254 28.244 11.209 40 13 11.756 1.791 19.598-4.581 30-6 10.402-1.419 23.364 2.117 39 4s33.947 2.115 47 1c13.053-1.115 20.85-3.577 32-2 11.15 1.577 25.656 7.194 41 5 15.344-2.194 31.527-12.198 38-15 6.473-2.802 3.237 1.6 40 6l-40 212H0Z" fill="url(#k)"/><path d="M0 423c14.447-3.246 28.893-6.493 43-7 14.107-.507 27.874 1.725 38 3 10.126 1.275 16.612 1.592 29 5 12.388 3.408 30.677 9.908 46 9 15.323-.908 27.68-9.225 40-11 12.32-1.775 24.604 2.99 38 1 13.396-1.99 27.904-10.735 40-10 12.096.735 21.782 10.95 34 15 12.218 4.05 26.97 1.934 41-3 14.03-4.934 27.34-12.685 38-12 10.66.685 18.672 9.806 31 13 12.328 3.194 28.972.463 44-1 15.028-1.463 28.44-1.656 39-5 10.56-3.344 18.265-9.84 32-7s33.499 15.014 48 17c14.501 1.986 23.74-6.217 35-7 11.26-.783 24.544 5.854 38 7s27.084-3.2 38-5c10.916-1.8 19.12-1.052 33-1 13.88.052 33.435-.592 46 1 12.565 1.592 18.14 5.42 31 6 12.86.58 33.006-2.09 47-2 13.994.09 21.835 2.941 32 4 10.165 1.059 22.652.325 36-5 13.348-5.325 27.555-15.241 43-14 15.445 1.241 32.127 13.64 39 17 6.873 3.36 3.936-2.32 41-8l-40 177H0Z" fill="url(#l)"/><path d="M0 458c12.21 2.759 24.42 5.518 38 4 13.58-1.518 28.531-7.312 43-6 14.469 1.312 28.456 9.73 39 12 10.544 2.27 17.646-1.607 30-4s29.96-3.302 43-2 21.511 4.814 34 4c12.489-.814 28.994-5.954 42-8 13.006-2.046 22.513-.999 36-2 13.487-1.001 30.953-4.051 45-5 14.047-.949 24.674.203 35 0s20.35-1.76 33-2c12.65-.24 27.93.836 41 2 13.07 1.164 23.934 2.416 36 4 12.066 1.584 25.335 3.5 40 5s30.726 2.585 45 1c14.274-1.585 26.761-5.839 37-8 10.239-2.161 18.229-2.23 31 1s30.325 9.758 44 9c13.675-.758 23.473-8.804 35-8 11.527.804 24.782 10.457 38 12 13.218 1.543 26.4-5.023 41-10 14.6-4.977 30.62-8.365 43-6 12.38 2.365 21.121 10.482 33 11 11.879.518 26.895-6.562 39-6 12.105.562 21.297 8.767 35 9 13.703.233 31.915-7.505 40-10s6.042.252 44 3l-40 142H0Z" fill="url(#m)"/><path d="M0 494c11.891-3.37 23.783-6.74 38-7 14.217-.26 30.76 2.589 42 5 11.24 2.411 17.176 4.385 30 1 12.824-3.385 32.537-12.127 46-9 13.463 3.127 20.676 18.123 31 20 10.324 1.877 23.757-9.367 38-12 14.243-2.633 29.294 3.343 44 5s29.066-1.007 42 0c12.934 1.007 24.441 5.685 37 6 12.559.315 26.17-3.734 38-4 11.83-.266 21.881 3.25 34 4s26.307-1.267 39-5c12.693-3.733 23.893-9.184 37-7 13.107 2.184 28.122 12.002 42 13 13.878.998 26.617-6.823 38-12s21.408-7.711 33-5c11.592 2.711 24.75 10.667 40 13s32.595-.956 46-5c13.405-4.044 22.871-8.842 35-11 12.129-2.158 26.92-1.676 39 2 12.08 3.676 21.45 10.545 33 10 11.55-.545 25.283-8.503 41-9 15.717-.497 33.419 6.466 46 9 12.581 2.534 20.042.638 30-3 9.958-3.638 22.412-9.018 37-8 14.588 1.018 31.311 8.434 39 11 7.689 2.566 6.345.283 45-2l-40 106H0Z" fill="url(#n)"/><path d="M0 529c10.72-1.85 21.44-3.7 34-4 12.56-.3 26.962.947 41 0s27.713-4.089 40-4c12.287.089 23.188 3.408 36 7 12.812 3.592 27.537 7.459 42 8 14.463.541 28.666-2.242 40-4s19.799-2.491 32-5 28.138-6.794 42-7c13.862-.206 25.65 3.667 38 5 12.35 1.333 25.265.124 38-2s25.292-5.165 37-2c11.708 3.165 22.567 12.534 36 16 13.433 3.466 29.44 1.029 44 0 14.56-1.029 27.674-.65 39-1s20.865-1.429 35-1c14.135.429 32.866 2.365 47 2 14.134-.365 23.67-3.032 34-3 10.33.032 21.455 2.762 33 4 11.545 1.238 23.511.983 37-1s28.5-5.693 41-10 22.488-9.21 36-7c13.512 2.21 30.547 11.533 45 13 14.453 1.467 26.323-4.922 38-6 11.677-1.078 23.16 3.154 37 5s30.034 1.305 45 0c14.966-1.305 28.705-3.373 34-4 5.295-.627 2.148.186 39 1l-40 71H0Z" fill="url(#o)"/><path d="M0 564c13.62-.912 27.24-1.823 41-1 13.76.823 27.657 3.38 39 3 11.343-.38 20.132-3.7 31-5 10.868-1.3 23.814-.579 38 1s29.612 4.015 42 5c12.388.985 21.739.517 34 1s27.434 1.917 41-1c13.566-2.917 25.526-10.186 39-9s28.463 10.826 43 11c14.537.174 28.621-9.117 40-12 11.379-2.883 20.052.641 31 3s24.169 3.553 37 5 25.272 3.149 40 1c14.728-2.149 31.745-8.147 45-7 13.255 1.147 22.75 9.438 34 10 11.25.562 24.254-6.607 36-8 11.746-1.393 22.233 2.99 37 3 14.767.01 33.815-4.353 49-7 15.185-2.647 26.508-3.578 36 0s17.152 11.665 30 13c12.848 1.335 30.883-4.083 44-5 13.117-.917 21.314 2.669 33 1s26.86-8.59 42-8c15.14.59 30.244 8.694 44 12 13.756 3.306 26.165 1.813 40-1 13.835-2.813 29.096-6.947 35-8s2.452.973 39 3l-40 36H0Z" fill="url(#p)"/></svg>