<svg width="1080" height="1920" xmlns="http://www.w3.org/2000/svg"><defs><linearGradient id="a" gradientTransform="rotate(90)"><stop offset="5%" stop-color="#6b7c98"/><stop offset="95%" stop-color="#909cb1"/></linearGradient><linearGradient id="b" gradientTransform="rotate(90)"><stop offset="5%" stop-color="#9ca8ba"/><stop offset="95%" stop-color="#b4bdcb"/></linearGradient><linearGradient id="c" gradientTransform="rotate(90)"><stop offset="5%" stop-color="#ced3dd"/><stop offset="95%" stop-color="#dadee5"/></linearGradient><linearGradient id="d" gradientTransform="rotate(90)"><stop offset="5%" stop-color="#fff"/><stop offset="95%" stop-color="#fff"/></linearGradient></defs><path fill="#395075" d="M0 0h1080v1920H0z"/><path d="M0 384c17.908-21.28 35.815-42.56 56-56 20.185-13.44 42.646-19.04 64 14s41.6 104.721 57 99c15.4-5.721 25.954-88.844 44-87 18.046 1.844 43.582 88.655 63 80 19.418-8.655 32.717-112.777 50-134s38.551 40.454 60 77c21.449 36.546 43.077 47.961 64 63 20.923 15.039 41.139 33.7 60 12 18.861-21.7 36.368-83.762 56-67 19.632 16.762 41.389 112.35 57 90 15.611-22.35 25.076-162.636 44-181 18.924-18.364 47.307 85.194 69 93 21.693 7.806 36.696-80.138 52-75 15.304 5.138 30.907 103.36 49 144s38.674 23.697 59 16c20.326-7.697 40.395-6.15 60-46 19.605-39.85 38.744-121.1 58-135 19.256-13.9 38.628 39.55 98 93l-40 1536H0Z" fill="url(#a)"/><path d="M0 768c17.289-18.555 34.577-37.11 53-12 18.423 25.11 37.98 93.887 57 105 19.02 11.113 37.502-35.438 56-49 18.498-13.562 37.013 5.863 57 0 19.987-5.863 41.447-37.015 62-67 20.553-29.985 40.2-58.803 59-33 18.8 25.803 36.753 106.229 56 115s39.787-54.111 61-69c21.213-14.889 43.099 18.216 58 15 14.901-3.216 22.819-42.752 41-49 18.181-6.248 46.626 20.793 69 30 22.374 9.207 38.678.58 57 30 18.322 29.42 38.664 96.89 58 88s37.668-94.14 56-119 36.663 10.667 56 42c19.337 31.333 39.678 58.47 59 46 19.322-12.47 37.625-64.55 54-103s30.821-63.271 49-56c18.179 7.271 40.09 46.636 102 86l-40 1152H0Z" fill="url(#b)"/><path d="M0 1152c14.688 15.853 29.377 31.705 50 38 20.623 6.295 47.18 3.032 67-21s32.9-68.835 50-103c17.1-34.165 38.218-57.694 59-8 20.782 49.694 41.229 172.61 60 186 18.771 13.39 35.867-82.745 54-111 18.133-28.255 37.303 11.372 57 27 19.697 15.628 39.922 7.258 59 16 19.078 8.742 37.008 34.596 56 22 18.992-12.596 39.047-63.643 58-53 18.953 10.643 36.805 82.975 54 57 17.195-25.975 33.733-150.256 54-136 20.267 14.256 44.261 167.05 65 188 20.739 20.95 38.22-89.942 56-98 17.78-8.058 35.855 86.72 55 83 19.145-3.72 39.358-105.935 59-151 19.642-45.065 38.711-32.979 57-27 18.289 5.979 35.797 5.851 54 20 18.203 14.149 37.102 42.574 96 71l-40 768H0Z" fill="url(#c)"/><path d="M0 1536c20.718-55.426 41.435-110.851 58-95 16.565 15.851 28.976 102.98 48 147 19.024 44.02 44.66 44.93 66 6 21.34-38.93 38.38-117.702 56-128 17.62-10.298 35.818 47.88 55 84 19.182 36.12 39.349 50.186 58 27 18.651-23.186 35.787-83.621 56-84 20.213-.379 43.504 59.3 61 77 17.496 17.7 29.196-6.578 46-20s38.71-15.987 61-46c22.29-30.013 44.961-87.473 64-71s34.444 106.88 51 125c16.556 18.12 34.262-36.045 56-55s47.508-2.7 66 27c18.492 29.7 29.706 72.848 47 96s40.666 26.309 63-24c22.334-50.309 43.628-154.083 60-150 16.372 4.083 27.82 116.024 45 148s40.09-16.012 103-64l-40 384H0Z" fill="url(#d)"/></svg>