<svg width="1080" height="1920" xmlns="http://www.w3.org/2000/svg"><defs><linearGradient id="a" gradientTransform="rotate(90)"><stop offset="5%" stop-color="#d6aa28"/><stop offset="95%" stop-color="#e0bf5d"/></linearGradient><linearGradient id="b" gradientTransform="rotate(90)"><stop offset="5%" stop-color="#b69837"/><stop offset="95%" stop-color="#c8b169"/></linearGradient><linearGradient id="c" gradientTransform="rotate(90)"><stop offset="5%" stop-color="#978647"/><stop offset="95%" stop-color="#b1a475"/></linearGradient><linearGradient id="d" gradientTransform="rotate(90)"><stop offset="5%" stop-color="#787456"/><stop offset="95%" stop-color="#999680"/></linearGradient><linearGradient id="e" gradientTransform="rotate(90)"><stop offset="5%" stop-color="#586266"/><stop offset="95%" stop-color="#81898c"/></linearGradient><linearGradient id="f" gradientTransform="rotate(90)"><stop offset="5%" stop-color="#395075"/><stop offset="95%" stop-color="#6a7b97"/></linearGradient><linearGradient id="g" gradientTransform="rotate(90)"><stop offset="5%" stop-color="#5a6d8c"/><stop offset="95%" stop-color="#8391a8"/></linearGradient><linearGradient id="h" gradientTransform="rotate(90)"><stop offset="5%" stop-color="#7b8aa3"/><stop offset="95%" stop-color="#9ca7ba"/></linearGradient><linearGradient id="i" gradientTransform="rotate(90)"><stop offset="5%" stop-color="#9ca8ba"/><stop offset="95%" stop-color="#b4bdcb"/></linearGradient><linearGradient id="j" gradientTransform="rotate(90)"><stop offset="5%" stop-color="#bdc5d1"/><stop offset="95%" stop-color="#cdd3dc"/></linearGradient><linearGradient id="k" gradientTransform="rotate(90)"><stop offset="5%" stop-color="#dee2e8"/><stop offset="95%" stop-color="#e6e9ed"/></linearGradient><linearGradient id="l" gradientTransform="rotate(90)"><stop offset="5%" stop-color="#fff"/><stop offset="95%" stop-color="#fff"/></linearGradient></defs><path fill="#f5bc18" d="M0 0h1080v1920H0z"/><path d="M0 147c10.722 18.606 21.443 37.213 34 38 12.557.787 26.948-16.244 40-28s24.765-18.237 35-28c10.235-9.763 18.992-22.808 31-26s27.265 3.47 40 11c12.735 7.53 22.946 15.927 35 21 12.054 5.073 25.95 6.822 40 16s28.254 25.785 38 25c9.746-.785 15.035-18.963 27-27 11.965-8.037 30.606-5.934 43 2 12.394 7.934 18.542 21.698 29 31 10.458 9.302 25.227 14.14 39-3s26.552-56.26 40-55c13.448 1.26 27.567 42.898 38 58 10.433 15.102 17.18 3.667 27-21s22.714-62.568 35-52c12.286 10.568 23.963 69.604 36 80 12.037 10.396 24.433-27.848 38-35 13.567-7.152 28.304 16.787 40 6 11.696-10.787 20.349-56.301 33-51 12.651 5.301 29.3 61.418 43 69 13.7 7.582 24.452-33.371 35-47 10.548-13.629 20.891.066 33 9 12.109 8.934 25.983 13.108 39 5s25.177-28.497 36-36 20.309-2.121 31 6c10.691 8.121 22.587 18.98 35 26s25.342 10.197 37 14c11.658 3.803 22.045 8.23 34 7 11.955-1.23 25.477-8.115 79-15l-40 1773H0Z" fill="url(#a)"/><path d="M0 295c13.16-15.513 26.318-31.025 37-22 10.682 9.025 18.886 42.589 30 48 11.114 5.411 25.136-17.33 38-31 12.864-13.67 24.568-18.266 36-14 11.432 4.266 22.592 17.396 35 21 12.408 3.604 26.066-2.32 39-5 12.934-2.68 25.145-2.119 36-4 10.855-1.881 20.354-6.206 33-16s28.438-25.056 42-9c13.562 16.056 24.895 63.432 35 66 10.105 2.568 18.983-39.672 30-40 11.017-.328 24.172 41.256 36 47s22.33-24.35 36-38c13.67-13.65 30.507-10.853 44-21 13.493-10.147 23.643-33.236 34-25 10.357 8.236 20.922 47.798 33 65 12.078 17.202 25.669 12.043 38-4s23.402-42.969 35-41c11.598 1.969 23.722 32.833 35 48 11.278 15.167 21.709 14.637 33 2s23.443-37.383 36-41c12.557-3.617 25.52 13.893 40 24s30.476 12.81 41-1c10.524-13.81 15.577-44.13 28-40 12.423 4.13 32.215 42.71 45 42 12.785-.71 18.561-40.713 29-49 10.439-8.287 25.54 15.14 40 15 14.46-.14 28.278-23.845 39-20 10.722 3.845 18.35 35.241 29 47 10.65 11.759 24.325 3.88 78-4l-40 1625H0Z" fill="url(#b)"/><path d="M0 443c12.416-2.197 24.832-4.393 37 0s24.087 15.376 35 11c10.913-4.376 20.819-24.111 32-17 11.181 7.111 23.637 41.068 35 49 11.363 7.932 21.632-10.161 36-21 14.368-10.839 32.836-14.423 45-16 12.164-1.577 18.025-1.148 28-3 9.975-1.852 24.066-5.986 38 8 13.934 13.986 27.711 46.093 39 33 11.289-13.093 20.089-71.386 33-85 12.911-13.614 29.935 17.451 43 45 13.065 27.549 22.173 51.582 34 39 11.827-12.582 26.373-61.779 37-75 10.627-13.221 17.334 9.534 29 24s28.29 20.644 42 21c13.71.356 24.507-5.11 35-4 10.493 1.11 20.682 8.797 31 2 10.318-6.797 20.765-28.076 34-32 13.235-3.924 29.257 9.508 43 7 13.743-2.508 25.205-20.956 36-12 10.795 8.956 20.921 45.315 32 62 11.079 16.685 23.11 13.694 36-3 12.89-16.694 26.642-47.093 38-39 11.358 8.093 20.322 54.676 32 50 11.678-4.676 26.07-60.612 40-78 13.93-17.388 27.401 3.772 38 22s18.325 33.525 31 46c12.675 12.475 30.297 22.128 43 9s20.487-49.037 31-60c10.513-10.963 23.757 3.018 77 17l-40 1477H0Z" fill="url(#c)"/><path d="M0 590c11.92 18.565 23.84 37.13 36 44 12.16 6.87 24.558 2.047 37-6s24.926-19.319 36-24c11.074-4.681 20.737-2.773 33-6 12.263-3.227 27.128-11.59 40-10 12.872 1.59 23.753 13.133 35 21 11.247 7.867 22.859 12.059 34 6 11.141-6.059 21.811-22.368 33-27 11.189-4.632 22.896 2.412 35 6s24.604 3.718 37 1 24.687-8.286 38-13c13.313-4.714 27.648-8.575 40 5s22.72 44.586 35 44c12.28-.586 26.472-32.769 38-46 11.528-13.231 20.392-7.51 30 0s19.961 16.809 34 5c14.039-11.809 31.763-44.726 46-34 14.237 10.726 24.986 65.095 35 78 10.014 12.905 19.292-15.654 31-27 11.708-11.346 25.845-5.478 40-8 14.155-2.522 28.328-13.435 38-8 9.672 5.435 14.845 27.218 26 18s28.294-49.436 41-59 20.978 11.527 32 17c11.022 5.473 24.792-4.67 37-10 12.208-5.33 22.854-5.845 35 0s25.792 18.051 38 33c12.208 14.949 22.98 32.64 34 33 11.02.36 22.292-16.611 35-25 12.708-8.389 26.854-8.194 81-8l-40 1330H0Z" fill="url(#d)"/><path d="M0 738c13.808 16.516 27.616 33.032 40 40 12.384 6.968 23.342 4.387 35-8 11.658-12.387 24.014-34.582 35-42 10.986-7.418 20.602-.06 33 16s27.577 40.82 40 36c12.423-4.82 22.09-39.222 32-45 9.91-5.778 20.063 17.067 33 26 12.937 8.933 28.658 3.953 43 2 14.342-1.953 27.305-.878 38-4s19.122-10.44 31-18c11.878-7.56 27.205-15.36 40-8 12.795 7.36 23.057 29.882 33 27 9.943-2.882 19.568-31.169 32-38 12.432-6.831 27.673 7.794 40 19 12.327 11.206 21.742 18.995 33 17 11.258-1.995 24.36-13.773 36-29s21.817-33.902 33-32c11.183 1.902 23.372 24.383 36 40s25.696 24.37 38 36c12.304 11.63 23.843 26.133 35 6s21.933-74.905 35-76c13.067-1.095 28.426 51.485 40 68 11.574 16.515 19.365-3.035 32 0 12.635 3.035 30.115 28.654 44 10 13.885-18.654 24.174-81.58 36-84 11.826-2.42 25.188 55.67 36 76 10.812 20.33 19.073 2.903 30-20s24.519-51.282 38-56c13.481-4.718 26.852 14.223 39 25s23.074 13.388 74 16l-40 1182H0Z" fill="url(#e)"/><path d="M0 886c10.088.738 20.176 1.476 32-8 11.824-9.476 25.384-29.165 37-28 11.616 1.165 21.288 23.183 34 36s28.463 16.433 41 15c12.537-1.433 21.858-7.917 32-2s21.103 24.233 34 19c12.897-5.233 27.73-34.014 42-37 14.27-2.986 27.975 19.823 41 28 13.025 8.177 25.371 1.722 36-8 10.629-9.722 19.54-22.713 32-29 12.46-6.287 28.465-5.871 39-3 10.535 2.871 15.597 8.198 27 11 11.403 2.802 29.145 3.08 42-7s20.821-30.521 33-20c12.179 10.521 28.57 52.004 40 65 11.43 12.996 17.896-2.496 30-23s29.845-46.02 43-44c13.155 2.02 21.725 31.577 33 34 11.275 2.423 25.255-22.289 36-12 10.745 10.289 18.254 55.578 30 56 11.746.422 27.728-44.023 41-59 13.272-14.977 23.835-.484 35 20s22.93 46.961 36 32c13.07-14.961 27.442-71.36 39-73 11.558-1.64 20.303 51.477 32 59 11.697 7.523 26.347-30.548 40-46 13.653-15.452 26.309-8.286 38-10 11.691-1.714 22.417-12.308 33-4 10.583 8.308 21.024 35.516 33 45 11.976 9.484 25.488 1.242 79-7l-40 1034H0Z" fill="url(#f)"/><path d="M0 1033c12.675.734 25.35 1.467 36-1 10.65-2.467 19.275-8.136 32 3 12.725 11.136 29.551 39.077 41 27 11.449-12.077 17.52-64.17 30-71 12.48-6.83 31.367 31.604 43 52s16.01 22.755 28 22c11.99-.755 31.59-4.623 44-7s17.63-3.264 28-5c10.37-1.736 25.89-4.321 41-16s29.807-32.451 41-29c11.193 3.451 18.881 31.125 30 45s25.667 13.95 39 9c13.333-4.95 25.45-14.927 38-19s25.534-2.244 36-6c10.466-3.756 18.414-13.097 31-15 12.586-1.903 29.809 3.632 42 6 12.191 2.368 19.351 1.567 31 1 11.649-.567 27.786-.902 40 6 12.214 6.902 20.506 21.042 32 11 11.494-10.042 26.19-44.264 40-46 13.81-1.736 26.733 29.015 38 38s20.876-3.795 32-14c11.124-10.205 23.761-17.836 36-7 12.239 10.836 24.078 40.14 36 37 11.922-3.14 23.927-38.722 35-33 11.073 5.722 21.216 52.749 35 56 13.784 3.251 31.21-37.273 42-46 10.79-8.727 14.943 14.343 26 15s29.016-21.098 43-27c13.984-5.902 23.992 4.049 74 14l-40 887H0Z" fill="url(#g)"/><path d="M0 1181c12.208-.66 24.416-1.32 35-3s19.544-4.383 33-5 31.407.85 43-10 16.826-34.02 27-24c10.174 10.02 25.287 53.23 40 62 14.713 8.77 29.026-16.899 40-31 10.974-14.101 18.61-16.634 29 0s23.533 52.437 36 52c12.467-.437 24.259-37.112 36-60 11.741-22.888 23.431-31.988 37-18 13.569 13.988 29.016 51.063 43 51 13.984-.063 26.505-37.264 37-38 10.495-.736 18.965 34.995 30 52 11.035 17.005 24.634 15.286 38-1s26.497-47.137 40-48c13.503-.863 27.377 28.261 37 33 9.623 4.739 14.996-14.91 26-22s27.64-1.625 41 11 23.444 32.409 36 29c12.556-3.409 27.584-30.01 40-37 12.416-6.99 22.22 5.63 32 8 9.78 2.37 19.54-5.51 32 3s27.623 33.408 42 38c14.377 4.592 27.969-11.122 39-29 11.031-17.878 19.503-37.92 31-30 11.497 7.92 26.02 43.805 39 50s24.417-17.298 35-20c10.583-2.702 20.31 15.388 32 18 11.69 2.612 25.34-10.254 38-18s24.33-10.373 76-13l-40 739H0Z" fill="url(#h)"/><path d="M0 1329c9.702 20.203 19.404 40.405 32 35 12.596-5.405 28.085-36.419 42-38 13.915-1.581 26.256 26.27 38 18s22.892-52.661 34-58c11.108-5.339 22.175 28.375 32 38s18.407-4.84 32-3c13.593 1.84 32.197 19.985 46 37 13.803 17.015 22.805 32.899 32 12s18.582-78.58 31-82c12.418-3.42 27.866 47.42 40 57 12.134 9.58 20.953-22.103 34-35 13.047-12.897 30.322-7.009 43 7s20.76 36.138 32 42c11.24 5.862 25.636-4.543 37-11s19.695-8.965 31-10c11.305-1.035 25.585-.598 39-4s25.967-10.643 37-17c11.033-6.357 20.549-11.83 31-14s21.838-1.038 35-5c13.162-3.962 28.097-13.02 41-12 12.903 1.02 23.772 12.117 37 25 13.228 12.883 28.814 27.552 40 34s17.972 4.675 30-8c12.028-12.675 29.299-36.253 41-36 11.701.253 17.833 24.336 29 38 11.167 13.664 27.368 16.91 40 23 12.632 6.09 21.695 15.024 34 1s27.851-51.006 41-48c13.149 3.006 23.9 46.002 35 55 11.1 8.998 22.55-16 74-41l-40 591H0Z" fill="url(#i)"/><path d="M0 1476c10.51-12.26 21.02-24.521 34-24 12.98.521 28.427 13.824 41 23s22.271 14.225 33 12c10.729-2.225 22.487-11.723 34-18 11.513-6.277 22.78-9.333 35-8 12.22 1.333 25.395 7.056 39 20 13.605 12.944 27.64 33.11 40 34 12.36.89 23.046-17.496 34-21 10.954-3.504 22.177 7.874 35 15s27.245 10 38 0c10.755-10 17.843-32.876 28-46 10.157-13.124 23.382-16.496 36-20 12.618-3.504 24.63-7.142 38 7 13.37 14.142 28.096 46.062 40 50 11.904 3.938 20.984-20.106 33-25 12.016-4.894 26.969 9.363 40 1 13.031-8.363 24.142-39.346 36-34 11.858 5.346 24.463 47.02 35 65 10.537 17.98 19.005 12.268 30 0 10.995-12.268 24.516-31.093 38-43 13.484-11.907 26.93-16.898 38-2s19.766 49.684 33 50c13.234.316 31.006-33.84 43-36 11.994-2.16 18.21 27.673 28 35 9.79 7.327 23.156-7.852 37-8 13.844-.148 28.168 14.737 40 4s21.171-47.094 34-64 29.146-14.36 41-3 19.244 31.531 30 39c10.756 7.469 24.878 2.234 79-3l-40 444H0Z" fill="url(#j)"/><path d="M0 1624c9.452-12.613 18.904-25.226 31-22 12.096 3.226 26.837 22.29 40 22 13.163-.29 24.749-19.935 37-12 12.251 7.935 25.167 43.45 38 52 12.833 8.55 25.583-9.864 37-14 11.417-4.136 21.501 6.005 33 8 11.499 1.995 24.412-4.156 37-7 12.588-2.844 24.853-2.383 38-6 13.147-3.617 27.178-11.314 38-9s18.434 14.64 28 17c9.566 2.36 21.084-5.243 33-23 11.916-17.757 24.23-45.667 38-45 13.77.667 28.998 29.912 42 37 13.002 7.088 23.78-7.982 34-4 10.22 3.982 19.883 27.015 33 36s29.687 3.92 42 1c12.313-2.92 20.37-3.698 32-12 11.63-8.302 26.836-24.13 39-31 12.164-6.87 21.287-4.783 32-5 10.713-.217 23.016-2.737 35-8 11.984-5.263 23.65-13.269 37-7 13.35 6.269 28.387 26.811 41 23s22.804-31.976 34-33c11.196-1.024 23.396 25.094 36 23 12.604-2.094 25.61-32.4 38-17 12.39 15.4 24.162 76.508 34 80 9.838 3.492 17.74-50.631 30-73 12.26-22.369 28.878-12.984 43-7s25.75 8.567 37 14 22.125 13.717 73 22l-40 296H0Z" fill="url(#k)"/><path d="M0 1772c13.828-6.533 27.656-13.067 40-14 12.344-.933 23.204 3.733 35-2 11.796-5.733 24.528-21.867 36-27 11.472-5.133 21.684.736 34 14 12.316 13.264 26.735 33.925 39 34 12.265.075 22.376-20.436 32-12 9.624 8.436 18.76 45.82 30 48 11.24 2.18 24.586-30.846 39-51 14.414-20.154 29.898-27.438 41-16 11.102 11.438 17.823 41.597 29 48 11.177 6.403 26.81-10.95 41-12 14.19-1.05 26.935 14.203 37 11 10.065-3.203 17.448-24.86 30-39s30.274-20.76 42-4c11.726 16.76 17.457 56.9 29 61 11.543 4.1 28.898-27.841 42-45s21.953-19.535 34-14 27.292 18.983 39 33c11.708 14.017 19.88 28.605 31 22 11.12-6.605 25.186-34.402 39-50 13.814-15.598 27.374-18.995 39-22 11.626-3.005 21.316-5.616 33-3 11.684 2.616 25.362 10.46 37 17 11.638 6.54 21.237 11.78 33 15 11.763 3.22 25.688 4.423 39 10 13.312 5.577 26.009 15.527 37 17 10.991 1.473 20.276-5.533 31-16 10.724-10.467 22.887-24.395 37-31s30.175-5.887 43 0 22.412 16.944 72 28l-40 148H0Z" fill="url(#l)"/><path d="M0 1919c12.694 6.93 25.387 13.86 37 22s22.145 17.489 34 17c11.855-.489 25.034-10.815 37-15 11.966-4.185 22.72-2.228 35-13 12.28-10.772 26.086-34.272 39-33 12.914 1.272 24.935 27.318 36 40 11.065 12.682 21.174 12 32 5s22.369-20.319 35-16c12.631 4.319 26.352 26.275 39 25 12.648-1.275 24.225-25.78 35-44 10.775-18.22 20.747-30.154 32-30 11.253.154 23.785 12.396 38 16 14.215 3.604 30.111-1.432 42 0s19.769 9.33 30 16c10.231 6.67 22.813 12.108 35 4 12.187-8.108 23.979-29.764 37-19s27.272 53.948 39 61c11.728 7.052 20.933-22.029 32-38s23.998-18.833 38-9c14.002 9.833 29.077 32.362 41 32 11.923-.362 20.696-23.616 33-27 12.304-3.384 28.14 13.103 40 26s19.743 22.205 32 22c12.257-.205 28.886-9.924 40-14 11.114-4.076 16.713-2.51 27-19 10.287-16.49 25.262-51.034 38-52 12.738-.966 23.24 31.648 34 32 10.76.352 21.782-31.56 36-26 14.218 5.56 31.634 48.588 45 61 13.366 12.412 22.683-5.794 72-24l-40 1H0Z" fill="url(#gradient_13)"/></svg>