<svg width="1080" height="1920" xmlns="http://www.w3.org/2000/svg"><defs><linearGradient id="a" gradientTransform="rotate(90)"><stop offset="5%" stop-color="#9ca8ba"/><stop offset="95%" stop-color="#b4bdcb"/></linearGradient><linearGradient id="b" gradientTransform="rotate(90)"><stop offset="5%" stop-color="#fff"/><stop offset="95%" stop-color="#fff"/></linearGradient><linearGradient id="c" gradientTransform="rotate(90)"><stop offset="5%" stop-color="#fade8c"/><stop offset="95%" stop-color="#fbe6a8"/></linearGradient><linearGradient id="d" gradientTransform="rotate(90)"><stop offset="5%" stop-color="#f5bc18"/><stop offset="95%" stop-color="#f7cc51"/></linearGradient></defs><path fill="#395075" d="M0 0h1080v1920H0z"/><path d="M0 384c18.183 34.867 36.367 69.734 57 63 20.633-6.734 43.716-55.07 63-66s34.77 15.545 51 39c16.23 23.455 33.201 43.888 51 33 17.799-10.888 36.423-53.1 58-58 21.577-4.9 46.105 27.509 64 28 17.895.491 29.155-30.935 47-65s42.274-70.768 63-41 37.75 126.007 59 122c21.25-4.007 46.725-108.26 63-103 16.275 5.26 23.351 120.035 42 141 18.649 20.965 48.87-51.88 70-88 21.13-36.12 33.17-35.516 49-39 15.83-3.484 35.454-11.058 56-25s42.017-34.252 60-9c17.983 25.252 32.48 96.068 51 110 18.52 13.932 41.063-29.018 63-21 21.937 8.018 43.268 67.005 62 72 18.732 4.995 34.866-44.003 91-93l-40 1536H0Z" fill="url(#a)"/><path d="M0 768c15.744-36.133 31.487-72.265 52-70 20.513 2.265 45.795 42.929 67 51 21.205 8.071 38.333-16.449 55-7 16.667 9.449 32.875 52.867 53 47 20.125-5.867 44.17-61.02 63-78 18.83-16.98 32.448 4.213 51 13 18.552 8.787 42.038 5.167 61 10 18.962 4.833 33.4 18.119 50 6s35.362-49.641 56-78c20.638-28.359 43.154-47.553 61 4 17.846 51.553 31.024 173.854 51 197 19.976 23.146 46.75-52.864 69-102s39.977-71.399 56-60c16.023 11.399 30.341 56.458 49 67 18.659 10.542 41.657-13.435 60-37 18.343-23.565 32.03-46.718 51-12s43.223 127.309 63 139c19.777 11.691 35.08-57.517 53-86 17.92-28.483 38.46-16.242 99-4l-40 1152H0Z" fill="url(#b)"/><path d="M0 1152c14.752 31.788 29.504 63.575 50 47 20.496-16.575 46.737-81.514 66-98 19.263-16.486 31.55 15.48 50 44s43.064 53.593 65 74c21.936 20.407 41.195 36.149 60 5s37.156-109.188 55-128c17.844-18.812 35.18 21.605 55 47s42.126 35.768 60 5c17.874-30.768 31.317-102.678 49-92 17.683 10.678 39.604 103.945 59 157 19.396 53.055 36.265 65.898 56 27 19.735-38.898 42.336-129.535 61-135 18.664-5.465 33.392 74.244 50 76 16.608 1.756 35.097-74.44 55-105 19.903-30.56 41.22-15.487 61-12s38.024-4.612 55-13 32.686-17.066 53 12 45.233 95.876 66 117c20.767 21.124 37.384-3.438 94-28l-40 768H0Z" fill="url(#c)"/><path d="M0 1536c17.034-19.297 34.069-38.594 52-39 17.931-.406 36.759 18.08 56 31 19.241 12.92 38.897 20.277 57 14 18.103-6.277 34.655-26.189 54-29s41.482 11.477 63 40 42.415 71.279 60 61c17.585-10.279 31.858-73.593 52-75 20.142-1.407 46.152 59.094 68 49 21.848-10.094 39.532-90.781 57-100 17.468-9.219 34.719 53.032 53 89s37.593 45.652 54 44c16.407-1.652 29.91-14.641 51-48s49.768-87.087 68-120 26.017-45.01 43 1 43.164 150.124 64 180c20.836 29.876 36.327-14.487 54-57 17.673-42.513 37.527-83.177 59-84 21.473-.823 44.564 38.193 64 52 19.436 13.807 35.218 2.403 91-9l-40 384H0Z" fill="url(#d)"/></svg>