<?xml version="1.0" encoding="UTF-8"?>
<svg width="197.83mm" height="197.83mm" version="1.1" viewBox="0 0 700.96596 700.96596" xmlns="http://www.w3.org/2000/svg">
 <g transform="translate(-26.66 -19.022)">
  <rect x="26.66" y="19.022" width="700.97" height="700.97" fill="#cddc39"/>
  <path d="m138.94 80.464c-28.167 0-50.84 22.678-50.84 50.845v476.39c0 20.711 4.8075 21.739 13.203 32.723l73.522 79.562h552.79v-548.36l-76.298-76.298c-9.1899-9.1899-21.904-14.862-35.988-14.862zm185.86 185.86h341.37v341.37c0 28.167-22.678 50.845-50.845 50.845h-341.37v-341.37c0-28.167 22.672-50.845 50.84-50.845z" fill="#afb42b"/>
  <rect x="88.104" y="80.466" width="578.08" height="578.08" ry="50.843" fill="#fff"/>
  <rect x="262.97" y="604.49" width="228.34" height="54.531" ry="4.4385" fill="#cddc39"/>
  <path d="m268.55 614.78 56.223 56.223-60.405-3.7172z" fill="#afb42b" fill-rule="evenodd"/>
  <rect x="134.53" y="126.9" width="485.22" height="485.22" ry="34.797" fill="#cddc39"/>
  <path d="m377.77 186.3-37.174 65.717h27.163v272.56l-62.74-66.02v-44.659a38.958 38.958 0 0 0 28.005 -37.364 38.958 38.958 0 0 0 -38.955 -38.96 38.958 38.958 0 0 0 -38.96 38.96 38.958 38.958 0 0 0 28.005 37.364v52.39l-0.50824 0.48257 85.154 89.605v29.529a45.999 45.999 0 0 0 -34.735 44.561 45.999 45.999 0 0 0 45.999 45.999 45.999 45.999 0 0 0 45.999 -45.999 45.999 45.999 0 0 0 -34.73 -44.541v-118.28l86.858-91.407h0.12827v-0.13352l5e-3 -5e-3 -5e-3 -5e-3v-35.7h21.906v-65.712h-65.712v65.712h21.906v26.952l-65.086 68.495v-183.82h27.306l-39.828-65.717z" fill="#fff"/>
  <rect x="378.2" y="604.49" width="113.11" height="54.531" ry="4.4385" fill="#afb42b"/>
  <rect x="484.1" y="612.12" width="13.111" height="46.543" ry="6.5553" fill="#fff"/>
  <rect x="257.8" y="612.12" width="13.111" height="46.543" ry="6.5553" fill="#fff"/>
  <path d="m377.77 186.3-37.174 65.717 27.163 27.163 8.4487 123.86-57.405-57.405-22.232 7.3387 1.4195 20.293 7.0292 62.538-21.906-21.906v52.39l-0.50822 0.48257 85.154 89.605v29.529l26.208 26.208h190.99c19.277 0 34.797-15.519 34.797-34.797v-182.06l-120.57-120.57h-33.031z" fill="#afb42b"/>
  <path d="m377.77 186.3-37.174 65.717h27.163v272.56l-62.74-66.02v-44.659a38.958 38.958 0 0 0 28.005 -37.364 38.958 38.958 0 0 0 -38.955 -38.96 38.958 38.958 0 0 0 -38.96 38.96 38.958 38.958 0 0 0 28.005 37.364v52.39l-0.50824 0.48257 85.154 89.605v29.529a45.999 45.999 0 0 0 -34.735 44.561 45.999 45.999 0 0 0 45.999 45.999 45.999 45.999 0 0 0 45.999 -45.999 45.999 45.999 0 0 0 -34.73 -44.541v-118.28l86.858-91.407h0.12827v-0.13352l5e-3 -5e-3 -5e-3 -5e-3v-35.7h21.906v-65.712h-65.712v65.712h21.906v26.952l-65.086 68.495v-183.82h27.306l-39.828-65.717z" fill="#fff"/>
 </g>
</svg>
